/* XPM */
static char *sprite_07[] = {
/* columns rows colors chars-per-pixel */
"32 32 4 1 ",
"  c None",
". c black",
"X c #DFAF8A",
"o c #E1B99A",
/* pixels */
"                                ",
"                                ",
"                                ",
"                                ",
"                                ",
"                                ",
"               ...              ",
"              .XXX.             ",
"              .XXX.             ",
"              .XXX.             ",
"              .XXX.             ",
"              .XXX.             ",
"              .XXX.             ",
"          .....XXX...           ",
"         .oo...XXX.oo.          ",
"         .oo...XXX.oo....       ",
"        ..oo...XXX.oo..oo.      ",
"       ........XXX.oo..oo..     ",
"      .ooooooo.XXX.oo..oo..     ",
"      .XXXXXXX.XXX.oo..oo..     ",
"      .XX.....XXXX.oo..oo..     ",
"      .XX.oo..XXXX.oo..oo..     ",
"      .XXX...XXXXXX..XX....     ",
"       .XXXXXXXXXXXXXXXXX..     ",
"       ..XXXXXXXXXXXXXXXX..     ",
"        .XXXXXXXXXXXXXXX..      ",
"        ..XXXXXXXXXXXXX...      ",
"         .XXXXXXXXXXXX...       ",
"          .XXXXXXXXXX...        ",
"           .XXXXXXXXX..         ",
"           .XXXXXXXXX..         ",
"           .XXXXXXXXX..         "
};
