/* XPM */
static char *door[] = {
/* columns rows colors chars-per-pixel */
"32 32 13 1 ",
"  c black",
". c #081906",
"X c #101316",
"o c #121517",
"O c #161819",
"+ c #30120D",
"@ c #281C1A",
"# c #181D21",
"$ c #1A1D21",
"% c #1B2126",
"& c #2A2322",
"* c #2A2621",
"= c #711111",
/* pixels */
"                            .$$ ",
" OOO %%                  %%..X$ ",
" OOO %  XXXXXXXXXX&XX&XX  %.X   ",
" XXO   XXXXXXXXX&XXXXXXXX ..%%% ",
" OXO  XX&              XXX  %%X ",
" OXX XXX  $$$+***+$$$$  XXX %%% ",
" O.XXX&  $$$$+***+$$@$$  XX %%% ",
" O.O XX $$$$$+***+$$$$$+ XX %.. ",
" ..  XX +$$$$+***+$$$$++ XX %.X ",
" .$$ XX ++$$$+***+$$$+++ XX %.% ",
" $$$ XX +++$$+***+$$++++ XX %%% ",
" $$$&XX ++++$+***+$+++++ XX %%% ",
" $X$&XX ++++++***++++++  XX     ",
" $X$ XX ++++++***+++++ XXXX $$$ ",
" X$$ XX ************** X==X $$$ ",
"X$$$ XX ************** X==X $XX ",
" $$$ XX ************** XXXX $X$ ",
" $$$ XX ++++++***+++++ X..X $$$ ",
" $$$ XX ++++++***+++++ XXXX $$. ",
" $$$ XX ++++@+***+$++++  XX $$. ",
" $$$ &X +++$$+***+$@++++ XX $$. ",
" ..$ &X ++$$$+***+$@$+++ XX X$$ ",
"  .  X& +$$$$+***+$$$$++ XX $X$ ",
" OO. X& $$*$$+***+$$$$$+ XX X   ",
" OO. XX $$*$$+***+$$$$@$ XX ooX ",
" OOO XX $**$$+***+$$$$$$ XX Xoo ",
"     XX $$$$$+***+@$$$$$ XX XX. ",
" $$$ XX  $$$$+***+$$$$$  XX o.X ",
" $.. XXX  $$$+***+$$$$  XXX..oo ",
" ..$  XXX         &    XXX .oXo ",
" $$$   XXXXXXXXXXX&XXXXXX   ooo ",
" XXX                        XXX "
};
