/* XPM */
static char *ceiling_light[] = {
/* columns rows colors chars-per-pixel */
"96 96 33 1 ",
"  c black",
". c #161212",
"X c #131D2C",
"o c #1A2537",
"O c #1B283B",
"+ c #1D293B",
"@ c #1C2B3F",
"# c #1E2C3F",
"$ c #6E3E0C",
"% c #1E2C41",
"& c #1F2E42",
"* c #1F2F44",
"= c #1F3044",
"- c #202E42",
"; c #202F45",
": c #223043",
"> c #203045",
", c #233347",
"< c #243347",
"1 c #253446",
"2 c #213248",
"3 c #233348",
"4 c #233449",
"5 c #25364B",
"6 c #27374B",
"7 c #27374C",
"8 c #27384C",
"9 c #28394D",
"0 c #9E0202",
"q c #C20000",
"w c #DC0000",
"e c #FF0606",
"r c #884E12",
/* pixels */
"XXXXXXXXXXXXXXXXXXXXXXXXXXXXXXXXXXXXXXXXXXXXXXXXXXXXXXXXXXXXXXXXXXXXXXXXXXXXXXXXXXXXXXXXXXXXXXXX",
"XXXXXXXXXXXXXXXXXXXXXXXXXXXXXXXXXXXXXXXXXXXXXXXXXXXXXXXXXXXXXXXXXXXXXXXXXXXXXXXXXXXXXXXXXXXXXXXX",
"XXXXXXXXXXXXXXXXXXXXXXXXXXXXXXXXXXXXXXXXXXXXXXXXXXXXXXXXXXXXXXXXXXXXXXXXXXXXXXXXXXXXXXXXXXXXXXXX",
"XXX555888777<<<XXX999555888555555555555555555555555555555999###111888555555999XXX<<<555555777XXX",
"XXX555888777<<<XXX999555888555555555555555555555555555555999###111888555555999XXX<<<555555777XXX",
"XXX555888777<<<XXX999555888555555555555555555555555555555999###111888555555999XXX<<<555555777XXX",
"XXX555------###XXX---------------------------&&&&&&---------------------------XXX---------888XXX",
"XXX555------###XXX---------------------------&&&&&&---------------------------XXX---------888XXX",
"XXX555------###XXX---------------------------&&&&&&---------------------------XXX---------888XXX",
"XXX555--->>>&&&XXX444>>>&&&>>>2>>>>>&&&>>>>>>>>>***>>>>>>>>>>>>>>>>>>&&&>>>22>XXX>>>>>>---575XXX",
"XXX555--->>>&&&XXX444>>>&&&>>>>>>>>>&&&>>>>>>>>>***>>>>>>>>>>>>>>>>>>&&&>>>222XXX>>>>>>---555XXX",
"XXX555--->>>&&&XXX444>>>&&*>>>>>>>>>&&&>>>>>>>>>***>>>>>>>>>>>>>>>>>>&&&>>>222XXX>>>>>>---555XXX",
"XXX555--->>>>>>XXX:::222***>>>>>>>>>&&&>>>>>>&&&&&&>>>>>>>>>&&&&&&>>>;;;222@@@XXX>>>>>>---555XXX",
"XXX555--->>>>>>XXX:::222***>>>>>>>>>&&&>>>>>>&&&&&&>>>>>>>>>&&&&&&>>>;;;222@@@XXX>>>>>>---555XXX",
"XXX555--->>>>>>XXX:::222***>>>>>>>>>&&&>>>>>>&&&&&&>>>>>>>>>&&&&&&>>>;;;222@@@XXX>>>>>>---555XXX",
"XXX555--->>>>>>rrrXXX---222***&&&>>>>>>&&&&&&&&&>>>>>>&&&&&&&&&>>>>>>222@@@XXX155>>>>>>---555XXX",
"XXX555--->>>>>>rrrXXX---222***&&&>>>>>>&&&&&&&&&>>>>>>&&&&&&&&&>>>>>>222@@@XXX555>>>>>>---555XXX",
"XXX555--->>>>>>rrrXXX---222***&&&>>>>>>&&&&&&&&&>>>>>>&&&&&&&&&>>>>>>222@@@XXX555>>>>>>---555XXX",
"XXX555--->>>rrr$$$$$$XXX:::444>>>444>>>222444222444222222222>>>222222@@@XXX555>>>>>>>>>---555XXX",
"XXX555--->>>rrr$$$$$$XXX:::444>>>444>>>222445222444222222222>>>222222@@@XXX555>>>>>>>>>---555XXX",
"XXX555--->>>rrr$$$$$$XXX:::444>>>444>>>222244222444222222222>>>222222@@@XXX111>>>>>>>>>---555XXX",
"XXX555---***@@@$$$$$$>>>XXXXXXXXXXXXXXXXXXXXXXXXXXXXXXXXXXXXXXXXXXXXXXXX555>>>>>>&&&>>>---555XXX",
"XXX555---***@@@$$$$$$>>>XXXXXXXXXXXXXXXXXXXXXXXXXXXXXXXXXXXXXXXXXXXXXXXX555>>>>>>&&&>>>---555XXX",
"XXX555---***@@@$$$$$$>>>XXXXXXXXXXXXXXXXXXXXXXXXXXXXXXXXXXXXXXXXXXXXXXXX555>>>>>>&&&>>>---555XXX",
"XXX555--->>>>>>>>>***>>>XXX111>>>><<111>>><<<      <<<<<<>>>>>>555XXX:::rrr>>>>>>;;;>>>---555XXX",
"XXX555--->>>>>>>>>***>>>XXX111>>>><>1111>><<1      <<<<<<>>><><555XXX:::rrr>>>>>>;;;>>>---555XXX",
"XXX555--->>>>>>>>>***>>>XXX111>>>>>><<<>>><<1      <<<<<<>>><<<555XXX:::rrr>>>>>>;;;>>>---555XXX",
"XXX888--->>>>>>222   ===XXX111   >>>   >>>   XXXXXX   >>>   >>>   XXXrrr$$$   222>>>>>>---888XXX",
"XXX888--->>>>>2222   ===XXX111   >>>   >>>   XXXXXX   >>>   >>>   XXXrrr$$$   222>>>>>>---888XXX",
"XXX888--->>>>>2222   ===XXX111   >>>   >>>   XXXXXX   >>>   >>>   XXXrrr$$$   222>>>>>>---888XXX",
"XXXXXXXXXXXXXXXXXX      XXX   >>>   XXX   XXX      XXX   XXX   >>>   rrr      XXXXXXXXXXXXXXXXXX",
"XXXXXXXXXXXXXXXXXX      XXX   >>>   XXX   XXX      XXX   XXX   >>>   rrr      XXXXXXXXXXXXXXXXXX",
"XXXXXXXXXXXXXXXXXX      XXX   >>>   XXX   XXX      XXX   XXX   >>>   rrr      XXXXXXXXXXXXXXXXXX",
"XXX>>>---<<<<<<                                                                  555>>>---11>XXX",
"XXX>>>---<<<<<<                                                                  555>>>--->>>XXX",
"XXX>>>---<<<<<<                                                                  555>>>--->>>XXX",
"   555--->>>   &&&&&&   ................................................   ---222   >>>---555   ",
"   555--->>>   &&&&&&   ................................................   ---222   >>>---555   ",
"   555--->>>   &&&&&&   ................................................   ---222   >>>---555   ",
"XXX   ---      >>>      ...                                          ...      &&&      ---   XXX",
"XXX   ---      >>>      ...                                          ...      &&&      ---   XXX",
"XXX   ---      >>>      ...                                          ...      &&&      ---   XXX",
"XXX555   &&&&&&   +++   ...   000www000wwwwwwwwwwwwwwwwww000www000   ...   111   >>>>>>   222XXX",
"XXX555   &&&&&&   +++   ...   000www000wwwwwwwwwwwwwwwwww000www000   ...   111   >>>>>>   222XXX",
"XXX555   &&&&&&   +++   ...   000www000wwwwwwwwwwwwwwwwww000www000   ...   111   >>>>>>   222XXX",
"                        ...   wwwqqqwwweeeeeeeeeeeeeeeeeewwwqqqwww   ...                        ",
"                        ...   wwwqqqwwweeeeeeeeeeeeeeeeeewwwqqqwww   ...                        ",
"                        ...   wwwqqqwwweeeeeeeeeeeeeeeeeewwwqqqwww   ...                        ",
"XXX555   ===&&&   :::   ...   000www000wwwwwwwwwwwwwwwwww000www000   ...   555   &&&&&&   555XXX",
"XXX555   ===&&&   :::   ...   000www000wwwwwwwwwwwwwwwwww000www000   ...   555   &&&&&&   555XXX",
"XXX555   ===&&&   :::   ...   000www000wwwwwwwwwwwwwwwwww000www000   ...   555   &&&&&&   555XXX",
"XXX   ---      &&&      ...                                          ...      >>>      ---   XXX",
"XXX   ---      &&&      ...                                          ...      >>>      ---   XXX",
"XXX   ---      &&&      ...                                          ...      >>>      ---   XXX",
"   555--->>>   &&&:::   ................................................   >>>>>>   &&&---555   ",
"   555--->>>   &&&:::   ................................................   >>>>>>   &&&---555   ",
"   555--->>>   *&&:::   ................................................   >>>>>>   &&&---555   ",
"XXX999--->>>222               $$$$$$                                             >>>>>>---888XXX",
"XXX999--->>>222               $$$$$$                                             >>>>>>---888XXX",
"XXX999--->>>222               $$$$$$                                             >>>>>>---888XXX",
"XXX###---@@@++++++         &&&   $$$XXX   XXX      XXX   XXXXXX   >>>         ooo@@@OOO---###XXX",
"XXX###---@@@++++++         &&&   $$$XXX   XXX      XXX   XXXXXX   >>>         ooo@@@OOO---###XXX",
"XXX###---@@@++++++         &&&   $$$XXX   XXX      XXX   XXXXXX   >>>         ooo@@@OOO---###XXX",
"XXXXXXXXXXXXXXXXXX   >>>&&&   >>>      222   XXXXXX   222      &&&   >>>;;;   XXXXXXXXXXXXXXXXXX",
"XXXXXXXXXXXXXXXXXX   >>>&&&   >>>      222   XXXXXX   222      &&&   >>>;;;   XXXXXXXXXXXXXXXXXX",
"XXXXXXXXXXXXXXXXXX   >>>&&&   >>>      222   XXXXXX   222      &&&   >>>;;;   XXXXXXXXXXXXXXXXXX",
"XXX888--->>>>>>***>>>>>>>>>>>>&&&>>>>>>;;;>>>      >>>>>>>>>>>>>>>>>>>>>>>>>>>>>>>>>>>2&&&777XXX",
"XXX888--->>>>>>***>>>>>>>>>>>>&&&>>>>>>;;;>>>      >>>>>>>>>>>>>>>>>>>>>>>>>>>>>>>>>>22&&&777XXX",
"XXX888--->>>>>>***>>>>>>>>>>>>&&&>>>>>>;;;>>>      >>>>>>>>>>>>>>>>>>>>>>>>>>>>>>>>>>>2&&&777XXX",
"XXX555--->>>>>;>>>>>>***>>>&&&&&&&&&&&&&&&&&&XXXXXX&&&&&&&&&&&&&&&&&&>>>>>>>>>&&&&&&>>>&&&555XXX",
"XXX555--->>>>>;>>>>>>***>>>&&&&&&&&&&&&&&&&&&XXXXXX&&&&&&&&&&&&&&&&&&>>>>>>>>>&&&&&&>>>&&&555XXX",
"XXX555--->>>>>>>>>>>>***>>>&&&&&&&&&&&&&&&&&&XXXXXX&&&&&&&&&&&&&&&&&&>>>>>>>>>&&&&&&>>>&&&555XXX",
"XXX555---&&&&&&>>>>>>>>>XXXXXXXXXXXXXXXXXXXXXXXXXXXXXXXXXXXXXXXXXXXXXXXX>>>>>>&&&&&&>>>&&&555XXX",
"XXX555---&&&&&&>>>>>>>>>XXXXXXXXXXXXXXXXXXXXXXXXXXXXXXXXXXXXXXXXXXXXXXXX>>>>>>&&&&&&>>>&&&555XXX",
"XXX555---&&&&&&>>>>>>>>>XXXXXXXXXXXXXXXXXXXXXXXXXXXXXXXXXXXXXXXXXXXXXXXX>>>>>>&&&&&&>>>&&&555XXX",
"XXX555--->>>&&&>>>>>>XXX---555222222444444222444>>>>>>242222222<>>444@@@XXX>>>>>>&&&&&&&&&555XXX",
"XXX555--->>>&&&>>2>>>XXX---555222222444444222444>>>>>>442222222>>>455@@@XXX>>>>>>&&&&&&&&&555XXX",
"XXX555--->>>&&&>22>>>XXX---555222222444444222444>>>>>>552222222<>>444@@@XXX>>>>>>&&&&&&&&&555XXX",
"XXX555--->>>>>>>>>XXX:::222>>>>>>>>>&&&&&&>>>>>>;;;>>>&:&>>>;;;&&&>>>>>>@@@XXX>>>rrr>>>&&&555XXX",
"XXX555--->>>>>>>>>XXX:::222>>>>>>>>>&&&&&&>>>>>>;;;>>>==&>>>;;;&&&>>>>>>@@@XXX>>>rrr>>>&&&555XXX",
"XXX555--->>>>>>>>>XXX:::222>>>>>>>>>&&&&&&;;>>>>;;;>>>&&&>>>;;;&&&>>>>>>@@@XXX>>>rrr>>>&&&555XXX",
"XXX555---***>>>XXX---222>>>>>>&&&>>>&&&&&&>>>***>>>&&&&&&&&&&&&&&&>>>>>>222@@@XXX$$$>>>&&&555XXX",
"XXX555---***>>>XXX---222>>>>>>&&&>>>&&&&&&>>>***>>>&&&&&&&&&&&&&&&>>>>>>222@@@XXX$$$>>>&&&555XXX",
"XXX555---***>>>XXX---222>>>>>>&&&>>>&&&&&&>>>***>>>&&&&&&&&&&&&&&&>>>>>>222@@@XXX$$$>>>&&&555XXX",
"XXX555--->>>rrrXXX444***;;;>>>>>>>>>>>>>>>>>>>>>>>>>>>;;;>>>&&&&&&>>>>>>&&&222XXX$$$rrr&&&555XXX",
"XXX555--->>>rrrXXX444***;;;>>>>>>>>>>>>>>>>>>>>>>>>>>>;;;>>>&&&&&&>>>>>>&&&222XXX$$$rrr&&&555XXX",
"XXX555--->>>rrrXXX444***;;;>>>>>>>>>>>>>>>>>>>>>>>>>>>;;;>>>&&&&&&>>>>>>&&&222XXX$$$rrr&&&555XXX",
"XXX588---$$$$$$XXX---------------------------------------------------------&&&XXX$$$rrr---555XXX",
"XXX555---$$$$$$XXX---------------------------------------------------------&&&XXX$$$rrr---555XXX",
"XXX555---$$$$$$XXX---------------------------------------------------------&&&XXX$$$rrr---555XXX",
"XXX555555$$$rrrXXX555555555555555155555555555555555555555555555555555555555777XXXrrr555555555XXX",
"XXX555555$$$rrrXXX555555555555555555555555555555555555555555555555555555555777XXXrrr555555555XXX",
"XXX555555$$$rrrXXX555555555555555555555555555555555555555555555555555555555777XXXrrr555555555XXX",
"XXXXXXXXXXXXXXXXXXXXXXXXXXXXXXXXXXXXXXXXXXXXXXXXXXXXXXXXXXXXXXXXXXXXXXXXXXXXXXXXXXXXXXXXXXXXXXXX",
"XXXXXXXXXXXXXXXXXXXXXXXXXXXXXXXXXXXXXXXXXXXXXXXXXXXXXXXXXXXXXXXXXXXXXXXXXXXXXXXXXXXXXXXXXXXXXXXX",
"XXXXXXXXXXXXXXXXXXXXXXXXXXXXXXXXXXXXXXXXXXXXXXXXXXXXXXXXXXXXXXXXXXXXXXXXXXXXXXXXXXXXXXXXXXXXXXXX"
};
