/* XPM */
static char *ceiling_nolight[] = {
/* columns rows colors chars-per-pixel */
"96 96 27 1 ",
"  c #131D2C",
". c #1A2537",
"X c #1B283B",
"o c #1C2B3F",
"O c #1E2C3F",
"+ c #6E3E0C",
"@ c #1E2C41",
"# c #1F2E42",
"$ c #1F2F44",
"% c #1F3044",
"& c #202E42",
"* c #202F44",
"= c #223042",
"- c #203045",
"; c #243347",
": c #253446",
"> c #213248",
", c #233348",
"< c #233448",
"1 c #233449",
"2 c #25364B",
"3 c #27374B",
"4 c #27374C",
"5 c #27384C",
"6 c #28384C",
"7 c #293D5B",
"8 c #884E12",
/* pixels */
"                                                                                                ",
"                                                                                                ",
"                                                                                                ",
"   222555444;;;   777222555222222222222222222222222222222666OOO:::555222222777   ;;;222222444   ",
"   222555444;;;   777222555222222222222222222222222222222666OOO:::555222222777   ;;;222222444   ",
"   222555444;;;   777222555222222222222222222222222222222666OOO:::555222222777   ;;;222222444   ",
"   222&&&&&&OOO   777&&&&&&&&&&&&&&&&&&&&&&&&######&&&&&&&&&&&&&&&&&&&&&&&&777   &&&&&&&&&555   ",
"   222&&&&&&OOO   777&&&&&&&&&&&&&&&&&&&&&&&&######&&&&&&&&&&&&&&&&&&&&&&&&777   &&&&&&&&&555   ",
"   222&&&&&&OOO   777&&&&&&&&&&&&&&&&&&&&&&&&######&&&&&&&&&&&&&&&&&&&&&&&&777   &&&&&&&&&555   ",
"   222&&&---###   777---###--->-----###---------$$$------------------###---777   ------&&&242   ",
"   222&&&---###   777---###---------###---------$$$------------------###---777   ------&&&222   ",
"   222&&&---###   777---##$---------###---------$$$------------------###---777   ------&&&222   ",
"   222&&&------   777777$$$---------###------######---------######---***777777   ------&&&222   ",
"   222&&&------   777777$$$---------###------######---------######---***777777   ------&&&222   ",
"   222&&&------   777777$$$---------###------######---------######---***777777   ------&&&222   ",
"   222&&&---------   777777777###------#########------#########------777777   :22------&&&222   ",
"   222&&&---------   777777777###------#########------#########------777777   222------&&&222   ",
"   222&&&---------   777777777###------#########------#########------777777   222------&&&222   ",
"   222&&&---$$$---888   777777--1111--->>>111>>>111>>>>>>>>>---777777777   222---------&&&222   ",
"   222&&&---$$$---888   777777---111--->>>112>>>111>>>>>>>>>---777777777   222---------&&&222   ",
"   222&&&---$$$---888   777777---111--->>>111>>>111>>>>>>>>>---777777777   22:---------&&&222   ",
"   222&&&$$$ooo---+++888                                                222------###---&&&222   ",
"   222&&&$$$ooo---+++888                                                222------###---&&&222   ",
"   222&&&$$$ooo---+++888                                                222------###---&&&222   ",
"   222&&&---------$$$+++   :::----;;:::---;;;      ;;;;;;------222   ===>>>------***---&&&222   ",
"   222&&&---------$$$+++   :::----;-::::--;;:      ;;;;;;-----;222   ===>>>------***---&&&222   ",
"   222&&&---------$$$+++   :::------;;;---;;:      ;;;;;;---;;;222   ===>>>------***---&&&222   ",
"   555&&&------>>>###888   :::---------------      ---------------   ===---###>>>------&&&555   ",
"   555&&&----->>>>###888   :::---------------      ---------------   ===---&##>>>------&&&555   ",
"   555&&&----->>>>###888   :::---------------      ---------------   ===---&##>>>------&&&555   ",
"                  ***+++   222---                              ---   &&&112&##                  ",
"                  ***+++   222---                              ---   &&&122&$$                  ",
"                  ***+++   222---                              ---   &&&111###                  ",
"   ---&&&;;;;;;777   888   ---ooO   222;;;;;;:::777777777777   ---   ===---   &&&222---&&&777   ",
"   ---&&&;;;;;;777   888   ---ooO   222;;;;;;:::777777777777   -;-   ===---   &&&222---&&&777   ",
"   ---&&&;;;;;;777   888   ---ooO   222;;;;;;:::777777777777   -;;   ===---   &&&222---&&&777   ",
"   222&&&---###777777               111######---###***777777   222   ===   &&&>>>$$$---&&&777   ",
"   222&&&---###777777               111######---###-**777777   222   ===   &&&>>>$$$---&&&777   ",
"   222&&&---###777777               111######---###-*-777777   222   ===   &&&>>>$$$---&&&777   ",
"   222&&&------777777   ###$#####   111------>--###-*-777777   ---   &&&   222######---&&&777   ",
"   222&&&----->777777   ###$$$###   111---------###---777777   ---   &&&   >22######---&&&777   ",
"   222&&&----->777777   ###$$$###   111---------###---777777   ---   &&&   >22######---&&&777   ",
"   222&&&####$%777777   &&&=&&ooo   >>>***777###---+++---777         ;;;   ;::--*------&&&777   ",
"   222&&&#####$777777   &&&&&&ooo   >>>***777###---+++---777         ;;;   :::--*------&&&777   ",
"   222&&&######777777   &&&&&&ooo   >>>***777###---+++---777         ;;;   :::--*------&&&777   ",
"   222&&&$$$---###777   ---111---   >>>------777777+++------   222111111   222---------777555   ",
"   222&&&$$$---###777   ---111---   >>>------777777+++------   222111111   2:2---------777555   ",
"   222&&&$$$---###777   ---111---   >>>------777777+++------   222111111   2::---------777555   ",
"   222&&&%%%######777               >>>###---777+++---###---               222---######777777   ",
"   222&&&%%%######777               >>>###---777+++---###---               222---######777777   ",
"   222&&&%%%######777               >>2###---777+++---###---               222---######777777   ",
"   222&&&---######777   ------###   111---777------777###---   ;;;;;;;;;   222---------&&&777   ",
"   222&&&---######777   ------###   111---777------777###---   ;;;;;;;;;   222---------&&&777   ",
"   222&&&---######777   ------###   111---777--*---777###---   ;;;;;;;;;   222---------&&&777   ",
"   222&&&------777777   ooo---###   ---------###------------   222---***   ------######&&&222   ",
"   222&&&------777777   ooo---###   ---------###------------   222---***   ------######&&&222   ",
"   222&&&------777777   ooo---###   ---------###------------   222---***   ------######&&&222   ",
"   666&&&--->>>777777   $$$---###   :::---::::::--;;------:1   2::------   ooo---------&&&555   ",
"   666&&&--->>>777777   $$$---###   :::-----::::--:;;;------   :::------   ooo---------&&&555   ",
"   666&&&--->>>777777   $$$---###   :::-----::::--:;;;------   :::------   ooo---------&&&555   ",
"   OOO&&&ooo777777   ------###---                              222---------   ...oooXXX&&&OOO   ",
"   OOO&&&ooo777777   ------###---                              222---------   ...oooXXX&&&OOO   ",
"   OOO&&&ooo777777   ------###---                              222---------   ...oooXXX&&&OOO   ",
"                  ------######---111>>>>>>111      1>>>>>>>>---###------***---                  ",
"                  ------######---111>>>>>>111      >>>>>>>>>---***------***---                  ",
"                  ------######---111>>>>>>111      >>>>>>>>>---&&*------***---                  ",
"   555&&&------$$$------------###------***---      ------------------------------+++888+++888   ",
"   555&&&------$$$------------###------***---      ------------------------------+++888+++888   ",
"   555&&&------$$$------------###------***---      ------------------------------+++888+++888   ",
"   222&&&------------$$$---##################      888+++888+++######---------###888+++++++++   ",
"   222&&&------------$$$---##################      888+++888+++######---------###888+++++++++   ",
"   222&&&------------$$$---##################      888+++888+++######---------###888+++++++++   ",
"   222&&&+++###---------                                    888++++++   ------###888888###222   ",
"   222&&&+++###---------                                    888++++++   ------###888888###222   ",
"   222&&&+++###---------                                    888++++++   ------###888888###222   ",
"   222&&&888888------   777777777777777777777777777777777777777777+++777   ------###+++###222   ",
"   222&&&888888-->---   777777777777777777777777777777777777777777+++777   ------###+++###222   ",
"   222&&&888888->>---   777777777777777777777777777777777777777777+++777   ------###+++###222   ",
"   222888+++------   ===>>>---------######------***---###---***###------ooo   ---------888222   ",
"   222888+++------   ===>>>---------######------***---###---***###------ooo   ---------888222   ",
"   222888+++------   ===>>>---------######**----***---###---***###------ooo   ---------888222   ",
"   222+++888---   &&&>>>------###---######---$$$---###############------>>>ooo   ------###222   ",
"   222+++888---   &&&>>>------###---######---$$$---###############------>>>ooo   ------###222   ",
"   222+++888---   &&&>>>------###---######---$$$---###############------>>>ooo   ------###222   ",
"   222&&&888###   111$$$***---------------------------***---######------###>>>   ###---###888   ",
"   222&&&888###   111$$$***---------------------------***---######------###>>>   ###---###888   ",
"   222&&&888###   111$$$***---------------------------***---######------###>>>   ###---###888   ",
"   222&&&&&&&&&   &&&&&&&&&&&&&&&&&&&&&&&&&&&&&&&&&&&&&&&&&&&&&&&&&&&&&&&&&###   OOO&&&&&&222   ",
"   222&&&&&&&&&   &&&&&&&&&&&&&&&&&&&&&&&&&&&&&&&&&&&&&&&&&&&&&&&&&&&&&&&&&###   OOO&&&&&&222   ",
"   222&&&&&&&&&   &&&&&&&&&&&&&&&&&&&&&&&&&&&&&&&&&&&&&&&&&&&&&&&&&&&&&&&&&###   OOO&&&&&&222   ",
"   222222222---   222222222222222:22222222222222222222222222222222222222222444   222222222222   ",
"   222222222---   222222222222222222222222222222222222222222222222222222222444   222222222222   ",
"   222222222---   222222222222222222222222222222222222222222222222222222222444   222222222222   ",
"                                                                                                ",
"                                                                                                ",
"                                                                                                "
};
