/* XPM */
static char *wall[] = {
/* columns rows colors chars-per-pixel */
"32 32 11 1 ",
"  c black",
". c #121D10",
"X c #191F1F",
"o c #2E1E18",
"O c #1D2E1A",
"+ c #3B261F",
"@ c #1F2626",
"# c #242C2C",
"$ c #3F2921",
"% c #2E3737",
"& c #663521",
/* pixels */
"##### ########$$$######### #OO##",
"              $            OOO  ",
"@@@@ $&&%%%%%$$ ######@@@ @OO@$$",
"@@@@ %$&&%%%%$% #######@@ OO@@@$",
"@@@@ %$$%%%%%%% ########@ OO@@@$",
"@@@@ %%$%%%%%%% ########@ O@@@@$",
"@@@@ %$%%%%%%%% #########OO@@@@@",
"@@@@ $$OOO%%X%% ###$$&&##OXX@@@@",
"     OOOO   XX     $&&  OOX     ",
" ####O#### #XXXX###$&& %%O%%%%%%",
" ###O#@&@# ##XX#####&# %@O@@%%%%",
" ###O@@@@# ###XX####&#@@@O@@%%%%",
" ##OO###o# ####X###### %@O%%%%X%",
"@@@Oooooo# ########@@@ %%O%%%%XX",
"@@@O###### ########@@@ %%O%%X%%%",
"   O                    OO      ",
"$$O@@@ @@@@%%%%%% @@@###O## @@@&",
"$@O@@@ @@@%%%%%%@@@@@###O## @@@$",
"@O@@@@ @@%%%%%@@@ @#####O## @@@$",
"O@@@@@ %@%%%%%%%% ######O## @@@@",
"O@@@@oo%%%%%%%%%% #####OO## @@OO",
"     o               XXO        ",
"#### oo######$$&&#XXX###@ ######",
"####oo########$&$#X##@@@@ ######",
"#### #########$$$######@@ ######",
"@### ##########$#######@# ##@@@@",
"@### ########## #####..@@ ##@@@@",
"#### #@@####### o####...@ ####@@",
"      @       ...o....        o ",
"XXXX+++ XXX...$$..X XXXXXXXXXo@ ",
"XXXXXX++XX+.XX$ooXX XXXXXXXXooX ",
"XXXXXXX+X...XXooXXX XXXXXXXoooX "
};
