/* XPM */
static char *floor_2[] = {
/* columns rows colors chars-per-pixel */
"96 96 8 1 ",
"  c black",
". c #061B1A",
"X c #352005",
"o c #072524",
"O c #263030",
"+ c #2E3737",
"@ c #462A08",
"# c #623B0B",
/* pixels */
"                                                                                                ",
"                                                                                                ",
"                                                                                                ",
"   ###+++.........+++++++++      ++++++++++++   @@@.........OOO+++++++++###++++++@@@.........   ",
"   ###+++.........+++++++++      ++++++++++++   @@@.........OOO+++++++++###++++++@@@.........   ",
"   ###+++.........+++++++++      ++++++++++++   @@@.........OOO+++++++++###++++++@@@.........   ",
"   ###+++...+++++++++++++++   +++......++++++   XXX...OOOOOO+++@@@XXX+++@@@++++++++++++OOO...   ",
"   ###+++...+++++++++++++++   +++......++++++   XXX...OOOOOO+++@@@XXX+++@@@++++++++++++OOO...   ",
"   ###+++...+++++++++++++++   +++......++++++   XXX...OOOOOO+++@@@XXX+++@@@++++++++++++OOO...   ",
"   @@@+++XXX++++++++++++###   +++OOOOOO...+++   XXXOOOOOO...++++++@@@+++@@@+++++++++++++++OOO   ",
"   @@@+++XXX++++++++++++###   +++OOOOOO...+++   XXXOOOOOO...++++++@@@+++@@@+++++++++++++++OOO   ",
"   @@@+++XXX++++++++++++###   +++OOOOOO...+++   XXXOOOOOO...++++++@@@+++@@@+++++++++++++++OOO   ",
"   XXX+++@@@++++++OOO+++      ++++++OOO...###   ###OOO###...++++++###+++XXX++++++OOO+++++++++   ",
"   XXX+++@@@++++++OOO+++      ++++++OOO...###   ###OOO###...++++++###+++XXX++++++OOO+++++++++   ",
"   XXX+++@@@++++++OOO+++      ++++++OOO...###   ###OOO###...++++++###+++XXX++++++OOO+++++++++   ",
"   ++++++++++++...OOO+++   +++++++++++++++@@@   OOOOOOOOO...+++###++++++XXX++++++...OOOOOO+++   ",
"   ++++++++++++...OOO+++   +++++++++++++++@@@   OOOOOOOOO...+++###++++++XXX++++++...OOOOOO+++   ",
"   ++++++++++++...OOO+++   +++++++++++++++@@@   OOOOOOOOO...+++###++++++XXX++++++...OOOOOO+++   ",
"   ++++++++++++OOOOOO+++   +++...+++++++++XXX   +++OOOOOOOOO++++++++++++XXX++++++......OOO+++   ",
"   ++++++++++++OOOOOO+++   +++...+++++++++XXX   +++OOOOOOOOO++++++++++++XXX++++++......OOO+++   ",
"   ++++++++++++OOOOOO+++   +++...+++++++++XXX   +++OOOOOOOOO++++++++++++XXX++++++......OOO+++   ",
"   +++++++++###XXXOOO   ###...++++++OOO++++++   ++++++++++++OOO+++++++++###XXX++++++...OOO+++   ",
"   +++++++++###XXXOOO   ###...++++++OOO++++++   ++++++++++++OOO+++++++++###XXX++++++...OOO+++   ",
"   +++++++++###XXXOOO   ###...++++++OOO++++++   ++++++++++++OOO+++++++++###XXX++++++...OOO+++   ",
"      OOO++++++XXXOOO   +++...+++OOOOOO++++++   +++++++++++++++OOO++++++@@@@@@++++++...+++OOO   ",
"      OOO++++++XXXOOO   +++...+++OOOOOO++++++   +++++++++++++++OOO++++++@@@@@@++++++...+++OOO   ",
"      OOO++++++XXXOOO   +++...+++OOOOOO++++++   +++++++++++++++OOO++++++@@@@@@++++++...+++OOO   ",
"   ...   ++++++OOOOOO   +++...+++++++++++++++                                             +++   ",
"   ...   ++++++OOOOOO   +++...+++++++++++++++                                             +++   ",
"   ...   ++++++OOOOOO   +++...+++++++++++++++                                             +++   ",
"   ...      +++OOO         ......++++++OOOOOO   ......OOOOOO+++...++++++###+++OOO++++++         ",
"   ...      +++OOO         ......++++++OOOOOO   ......OOOOOO+++...++++++###+++OOO++++++         ",
"   ...      +++OOO         ......++++++OOOOOO   ......OOOOOO+++...++++++###+++OOO++++++         ",
"   +++OOO            OOO   ++++++++++++OOO...   +++++++++++++++...++++++###+++OOOOOOOOO++++++   ",
"   +++OOO            OOO   ++++++++++++OOO...   +++++++++++++++...++++++###+++OOOOOOOOO++++++   ",
"   +++OOO            OOO   ++++++++++++OOO...   +++++++++++++++...++++++###+++OOOOOOOOO++++++   ",
"   ++++++++++++......OOO+++               ...   +++++++++OOO+++...++++++###+++OOOOOO+++++++++   ",
"   ++++++++++++......OOO+++               ...   +++++++++OOO+++...++++++###+++OOOOOO+++++++++   ",
"   ++++++++++++......OOO+++               ...   +++++++++OOO+++...++++++###+++OOOOOO+++++++++   ",
"   ++++++OOO++++++...++++++OOO+++++++++         +++...++++++......OOO+++###OOO+++...OOO++++++   ",
"   ++++++OOO++++++...++++++OOO+++++++++         +++...++++++......OOO+++###OOO+++...OOO++++++   ",
"   ++++++OOO++++++...++++++OOO+++++++++         +++...++++++......OOO+++###OOO+++...OOO++++++   ",
"   ...OOO++++++++++++++++++OOO......+++###      ......+++###++++++++++++###OOO+++......+++###   ",
"   ...OOO++++++++++++++++++OOO......+++###      ......+++###++++++++++++###OOO+++......+++###   ",
"   ...OOO++++++++++++++++++OOO......+++###      ......+++###++++++++++++###OOO+++......+++###   ",
"   ...++++++@@@@@@@@@++++++.........+++@@@###   ...###...######@@@++++++@@@+++.........+++@@@   ",
"   ...++++++@@@@@@@@@++++++.........+++@@@###   ...###...######@@@++++++@@@+++.........+++@@@   ",
"   ...++++++@@@@@@@@@++++++.........+++@@@###   ...###...######@@@++++++@@@+++.........+++@@@   ",
"   ......######XXXXXX@@@+++......OOO++++++@@@   ###@@@@@@XXXXXXXXX@@@+++XXXXXX++++++OOO......   ",
"   ......######XXXXXX@@@+++......OOO++++++@@@   ###@@@@@@XXXXXXXXX@@@+++XXXXXX++++++OOO......   ",
"   ......######XXXXXX@@@+++......OOO++++++@@@   ###@@@@@@XXXXXXXXX@@@+++XXXXXX++++++OOO......   ",
"                                                                                                ",
"                                                                                                ",
"                                                                                                ",
"   ###XXX++++++...+++   ...............###@@@   @@@###ooo+++###XXXXXX   OOOOOO+++###@@@###...   ",
"   ###XXX++++++...+++   ...............###@@@   @@@###ooo+++###XXXXXX   OOOOOO+++###@@@###...   ",
"   ###XXX++++++...+++   ...............###@@@   @@@###ooo+++###XXXXXX   OOOOOO+++###@@@###...   ",
"   @@@......+++OOO+++   OOOOOOOOO+++...+++###   XXX+++++++++......+++   ###+++OOO++++++OOO...   ",
"   @@@......+++OOO+++   OOOOOOOOO+++...+++###   XXX+++++++++......+++   ###+++OOO++++++OOO...   ",
"   @@@......+++OOO+++   OOOOOOOOO+++...+++###   XXX+++++++++......+++   ###+++OOO++++++OOO...   ",
"   XXX+++...+++++++++   ++++++++++++OOO++++++   XXX++++++OOOOOO         XXX@@@OOOOOOOOO...+++   ",
"   XXX+++...+++++++++   ++++++++++++OOO++++++   XXX++++++OOOOOO         XXX@@@OOOOOOOOO...+++   ",
"   XXX+++...+++++++++   ++++++++++++OOO++++++   XXX++++++OOOOOO         XXX@@@OOOOOOOOO...+++   ",
"   ###++++++###++++++   ...++++++++++++...+++   ###+++OOO+++      ...+++XXX@@@+++++++++...@@@   ",
"   ###++++++###++++++   ...++++++++++++...+++   ###+++OOO+++      ...+++XXX@@@+++++++++...@@@   ",
"   ###++++++###++++++   ...++++++++++++...+++   ###+++OOO+++      ...+++XXX@@@+++++++++...@@@   ",
"   +++OOO++++++++++++   +++OOOOOOOOOXXX...OOO   ++++++OOO+++   OOO...+++###......###++++++XXX   ",
"   +++OOO++++++++++++   +++OOOOOOOOOXXX...OOO   ++++++OOO+++   OOO...+++###......###++++++XXX   ",
"   +++OOO++++++++++++   +++OOOOOOOOOXXX...OOO   ++++++OOO+++   OOO...+++###......###++++++XXX   ",
"   OOO+++++++++OOO...   @@@...###XXX###...OOO   ++++++OOO+++   OOO...+++###OOOOOO++++++++++++   ",
"   OOO+++++++++OOO...   @@@...###XXX###...OOO   ++++++OOO+++   OOO...+++###OOOOOO++++++++++++   ",
"   OOO+++++++++OOO...   @@@...###XXX###...OOO   ++++++OOO+++   OOO...+++###OOOOOO++++++++++++   ",
"   +++...OOO+++OOOOOO   @@@...+++@@@++++++OOO   @@@+++OOO+++   OOO...++++++OOO+++++++++++++++   ",
"   +++...OOO+++OOOOOO   @@@...+++@@@++++++OOO   @@@+++OOO+++   OOO...++++++OOO+++++++++++++++   ",
"   +++...OOO+++OOOOOO   @@@...+++@@@++++++OOO   @@@+++OOO+++   OOO...++++++OOO+++++++++++++++   ",
"   ......++++++OOOOOO   +++......XXX@@@++++++   +++...++++++   +++...++++++++++++OOO.........   ",
"   ......++++++OOOOOO   +++......XXX@@@++++++   +++...++++++   +++...++++++++++++OOO.........   ",
"   ......++++++OOOOOO   +++......XXX@@@++++++   +++...++++++   +++...++++++++++++OOO.........   ",
"   ......++++++OOOOOO   +++++++++@@@XXX+++OOO   +++...OOO         ++++++###OOO+++@@@OOOOOO...   ",
"   ......++++++OOOOOO   +++++++++@@@XXX+++OOO   +++...OOO         ++++++###OOO+++@@@OOOOOO...   ",
"   ......++++++OOOOOO   +++++++++@@@XXX+++OOO   +++...OOO         ++++++###OOO+++@@@OOOOOO...   ",
"   +++...###+++++++++   +++++++++...###++++++            +++++++++      @@@OOO+++XXX...+++OOO   ",
"   +++...###+++++++++   +++++++++...###++++++            +++++++++      @@@OOO+++XXX...+++OOO   ",
"   +++...###+++++++++   +++++++++...###++++++            +++++++++      @@@OOO+++XXX...+++OOO   ",
"   @@@...###+++OOO+++   OOO...+++++++++OOO+++   ...OOO+++XXX@@@+++XXX+++            +++......   ",
"   @@@...###+++OOO+++   OOO...+++++++++OOO+++   ...OOO+++XXX@@@+++XXX+++            +++......   ",
"   @@@...###+++OOO+++   OOO...+++++++++OOO+++   ...OOO+++XXX@@@+++XXX+++            +++......   ",
"   +++###+++...OOO+++   +++...++++++++++++OOO   +++OOO+++@@@###+++XXX+++XXX+++...      ......   ",
"   +++###+++...OOO+++   +++...++++++++++++OOO   +++OOO+++@@@###+++XXX+++XXX+++...      ......   ",
"   +++###+++...OOO+++   +++...++++++++++++OOO   +++OOO+++@@@###+++XXX+++XXX+++...      ......   ",
"   @@@+++......OOO+++   +++###+++XXX@@@###OOO   ###OOO+++OOO+++OOO###++++++OOOOOOOOO            ",
"   @@@+++......OOO+++   +++###+++XXX@@@###OOO   ###OOO+++OOO+++OOO###++++++OOOOOOOOO            ",
"   @@@+++......OOO+++   +++###+++XXX@@@###OOO   ###OOO+++OOO+++OOO###++++++OOOOOOOOO            ",
"                                                                                                ",
"                                                                                                ",
"                                                                                                "
};
