/* XPM */
static char *floor_1_lume[] = {
/* columns rows colors chars-per-pixel */
"32 32 78 1 ",
"  c #050606",
". c #010302",
"X c #273030",
"o c #0A0601",
"O c #2A3332",
"+ c #0B1B1A",
"@ c #232C2B",
"# c #313632",
"$ c #0C0A06",
"% c #2B2F2B",
"& c #2D3636",
"* c #333B3A",
"= c #0F201D",
"- c #2B3535",
"; c #1F2827",
": c #132320",
"> c #252F2E",
", c #303837",
"< c #3B3837",
"1 c #100C09",
"2 c #A94438",
"3 c #32332C",
"4 c #8A3831",
"5 c #250E08",
"6 c #22211A",
"7 c #31220C",
"8 c #473E3B",
"9 c #482E0F",
"0 c #903E34",
"q c #4D3210",
"w c #3B260C",
"e c #1C0904",
"r c #B2483B",
"t c #A14236",
"y c #3A2A23",
"u c #BB2908",
"i c #3E2A15",
"p c #6F3C3A",
"a c #9C3F37",
"s c #300F08",
"d c #0A1714",
"f c #482D23",
"g c #330C01",
"h c #190E0B",
"j c #513817",
"k c #7E3830",
"l c #C1310B",
"z c #613735",
"x c #51322E",
"c c #3B3E3E",
"v c #45290B",
"b c #583836",
"n c #161D1B",
"m c #2E241F",
"M c #6E322B",
"N c #AC3D2F",
"B c #DF330D",
"V c #AB2609",
"C c #2F1F09",
"Z c #6C3632",
"A c #9E3B2E",
"S c #7B332D",
"D c #D03E11",
"F c #332611",
"G c #2D1D07",
"H c #2E2D24",
"J c #622D1F",
"K c #CA3A12",
"L c #AB3710",
"P c #B94732",
"I c #E64411",
"U c #C03F10",
"Y c #453834",
"T c #6F3514",
"R c #F44511",
"E c #8D3418",
"W c #9C2A0D",
"Q c #782308",
/* pixels */
".o ... .       .o...   .o  o....",
"o9%++=;$@XX@@X@$G+++;%;1v%%F++d.",
"oq#:X-X1%,-::OX$G=@@Oi7$w#,#O@+.",
"ow3F#,X1qj#>@:%$C@%:-3w$w#&&&&; ",
"o73i#-@1q9#&>:9193q=O<q$C#&X-&X ",
" %,#-:;$v3-&&Ow$@X%:Oj3$G#-:@OX ",
" X&,#>@1q3;-,#7$XOXX&,X$73-==>X ",
" X&#jw@h9:-*&*O1-***&*-1qi#X=>> ",
" @O,#i#%1=<<<8<1<8888<<199,-=O@ ",
".+X**##: nbpppzhxzpppbzhJ9*&:-X ",
".+X*c<x6 6y0a4M1myk40ySsLb**&&X ",
" >&c8xZM54t22k614t22ay4sKp<,&,X ",
" O*cbmmS5arr2f6ha2rt0y4sD0Y&,,X ",
" >*<pkf454t2rlV5kf22fyksD0b;X,% ",
".+-8pNNa5Myy2RBe6ytIP2asDAz::#qo",
".+-8LBBNh6:y2RI5iUTIRINsBNy::Xwo",
".d=TlVuue+6MaNlgLBluuuugVVJ3;+d.",
".$o$ee5so  1hsgogg5sgggo55hh1$ .",
"ovG .640m666mUlguUx0UVW5SSZT99d.",
"ow:+hJ2r0000fPDguP22fi4sKNZ8<%+.",
"o7O;xs4ttrrr02tsuPrtkH6euBZ<O:; ",
"oq*8E516ftrrtf4sDPt2ak6eulz8,:7o",
" %,c8x$144AAVyM5A202246eli;j*O7o",
" @&*c<neufKlKfJ54a4aaSneLY&**,% ",
" ;:O*,%eQmMWkzxeEZzppbn$Y**,--> ",
".+=-,&O1odnvJ8<13;<8<<:$<*,%:=+.",
".+=O,--X$ $wv,X1>:O&,&%1q##i@@+.",
" ;:j#&&&X; d9#X$+@OO##w$w337:X; ",
"oF6j3O&OX+..$>X$+>OF93CoC3q7@=+.",
" Hj3:>&&On..$%@$%O#9j37o7O:==++.",
"o7H++;>@%io579;$i@>@%Hv$;@;;7Cwo",
".o ..    o.ooo .o     o.    ooo."
};
