/* XPM */
static char *floor_3[] = {
/* columns rows colors chars-per-pixel */
"96 96 8 1 ",
"  c black",
". c #061B1A",
"X c #352005",
"o c #072524",
"O c #263030",
"+ c #2E3737",
"@ c #462A08",
"# c #623B0B",
/* pixels */
"                                                                                                ",
"                                                                                                ",
"                                                                                                ",
"   ###+++.........+++   +++++++++++++++++++++   @@@.........OOO+++++++++###++++++@@@.........   ",
"   ###+++.........+++   +++++++++++++++++++++   @@@.........OOO+++++++++###++++++@@@.........   ",
"   ###+++.........+++   +++++++++++++++++++++   @@@.........OOO+++++++++###++++++@@@.........   ",
"   ###+++...+++++++++   +++++++++......++++++      ...OOOOOO+++@@@XXX+++@@@++++++++++++OOO...   ",
"   ###+++...+++++++++   +++++++++......++++++      ...OOOOOO+++@@@XXX+++@@@++++++++++++OOO...   ",
"   ###+++...+++++++++   +++++++++......++++++      ...OOOOOO+++@@@XXX+++@@@++++++++++++OOO...   ",
"   @@@+++XXX+++++++++   ######+++OOOOOO...+++      OOOOOO...++++++@@@+++@@@+++++++++++++++OOO   ",
"   @@@+++XXX+++++++++   ######+++OOOOOO...+++      OOOOOO...++++++@@@+++@@@+++++++++++++++OOO   ",
"   @@@+++XXX+++++++++   ######+++OOOOOO...+++      OOOOOO...++++++@@@+++@@@+++++++++++++++OOO   ",
"   XXX+++@@@++++++OOO   ###@@@++++++OOO...###      OOO###...++++++###   XXX++++++OOO+++++++++   ",
"   XXX+++@@@++++++OOO   ###@@@++++++OOO...###      OOO###...++++++###   XXX++++++OOO+++++++++   ",
"   XXX+++@@@++++++OOO   ###@@@++++++OOO...###      OOO###...++++++###   XXX++++++OOO+++++++++   ",
"   ++++++++++++...OOO   @@@+++++++++++++++@@@      OOOOOO...+++###+++   XXX++++++...      +++   ",
"   ++++++++++++...OOO   @@@+++++++++++++++@@@      OOOOOO...+++###+++   XXX++++++...      +++   ",
"   ++++++++++++...OOO   @@@+++++++++++++++@@@      OOOOOO...+++###+++   XXX++++++...      +++   ",
"   ++++++++++++OOOOOO   ###+++...+++++++++XXX      OOOOOOOOO++++++++++++XXX++++++...   OOO+++   ",
"   ++++++++++++OOOOOO   ###+++...+++++++++XXX      OOOOOOOOO++++++++++++XXX++++++...   OOO+++   ",
"   ++++++++++++OOOOOO   ###+++...+++++++++XXX      OOOOOOOOO++++++++++++XXX++++++...   OOO+++   ",
"   +++++++++###XXXOOO   ###...++++++OOO++++++      +++++++++OOO+++++++++###XXX+++   ...OOO+++   ",
"   +++++++++###XXXOOO   ###...++++++OOO++++++      +++++++++OOO+++++++++###XXX+++   ...OOO+++   ",
"   +++++++++###XXXOOO   ###...++++++OOO++++++      +++++++++OOO+++++++++###XXX+++   ...OOO+++   ",
"   +++OOO++++++XXXOOO+++   ...+++OOOOOO++++++         +++++++++OOO+++   @@@@@@+++   ...+++OOO   ",
"   +++OOO++++++XXXOOO+++   ...+++OOOOOO++++++         +++++++++OOO+++   @@@@@@+++   ...+++OOO   ",
"   +++OOO++++++XXXOOO+++   ...+++OOOOOO++++++         +++++++++OOO+++   @@@@@@+++   ...+++OOO   ",
"   ...OOO+++               ...+++++++++++++++   +++      ++++++OOO++++++@@@XXX+++   ...++++++   ",
"   ...OOO+++               ...+++++++++++++++   +++      ++++++OOO++++++@@@XXX+++   ...++++++   ",
"   ...OOO+++               ...+++++++++++++++   +++      ++++++OOO++++++@@@XXX+++   ...++++++   ",
"   ...OOO+++   OOOOOO...   ......++++++OOOOOO   ......      +++...+++   ###+++OOO   +++++++++   ",
"   ...OOO+++   OOOOOO...   ......++++++OOOOOO   ......      +++...+++   ###+++OOO   +++++++++   ",
"   ...OOO+++   OOOOOO...   ......++++++OOOOOO   ......      +++...+++   ###+++OOO   +++++++++   ",
"   +++OOO   +++OOOOOOOOO   ++++++++++++OOO...   +++++++++   +++...++++++###+++OOO   OOO++++++   ",
"   +++OOO   +++OOOOOOOOO   ++++++++++++OOO...   +++++++++   +++...++++++###+++OOO   OOO++++++   ",
"   +++OOO   +++OOOOOOOOO   ++++++++++++OOO...   +++++++++   +++...++++++###+++OOO   OOO++++++   ",
"   ++++++   +++......OOO   ++++++++++++......   +++++++++         +++   ###+++OOO   +++++++++   ",
"   ++++++   +++......OOO   ++++++++++++......   +++++++++         +++   ###+++OOO   +++++++++   ",
"   ++++++   +++......OOO   ++++++++++++......   +++++++++         +++   ###+++OOO   +++++++++   ",
"   ++++++   ++++++...+++   OOO+++++++++XXXXXX   +++...++++++......      ###OOO+++   OOO++++++   ",
"   ++++++   ++++++...+++   OOO+++++++++XXXXXX   +++...++++++......      ###OOO+++   OOO++++++   ",
"   ++++++   ++++++...+++   OOO+++++++++XXXXXX   +++...++++++......      ###OOO+++   OOO++++++   ",
"   ...   +++++++++++++++   OOO......+++###@@@   ......+++###++++++      ###OOO   ......+++###   ",
"   ...   +++++++++++++++   OOO......+++###@@@   ......+++###++++++      ###OOO   ......+++###   ",
"   ...   +++++++++++++++   OOO......+++###@@@   ......+++###++++++      ###OOO   ......+++###   ",
"   ...   +++@@@@@@@@@+++   .........+++@@@###   ...###...######@@@++++++@@@+++.........+++@@@   ",
"   ...   +++@@@@@@@@@+++   .........+++@@@###   ...###...######@@@++++++@@@+++.........+++@@@   ",
"   ...   +++@@@@@@@@@+++   .........+++@@@###   ...###...######@@@++++++@@@+++.........+++@@@   ",
"   ...   ######XXXXXX@@@   ......OOO++++++@@@   ###@@@@@@XXXXXXXXX@@@   XXXXXX++++++OOO......   ",
"   ...   ######XXXXXX@@@   ......OOO++++++@@@   ###@@@@@@XXXXXXXXX@@@   XXXXXX++++++OOO......   ",
"   ...   ######XXXXXX@@@   ......OOO++++++@@@   ###@@@@@@XXXXXXXXX@@@   XXXXXX++++++OOO......   ",
"                                                                                                ",
"                                                                                                ",
"                                                                                                ",
"               ...++++++...............###@@@   @@@###ooo+++###XXXXXX   OOOOOO+++###@@@###...   ",
"               ...++++++...............###@@@   @@@###ooo+++###XXXXXX   OOOOOO+++###@@@###...   ",
"               ...++++++...............###@@@   @@@###ooo+++###XXXXXX   OOOOOO+++###@@@###...   ",
"   @@@......   OOO++++++OOOOOOOOO+++...+++###   XXX+++++++++......+++   ###+++OOO++++++OOO...   ",
"   @@@......   OOO++++++OOOOOOOOO+++...+++###   XXX+++++++++......+++   ###+++OOO++++++OOO...   ",
"   @@@......   OOO++++++OOOOOOOOO+++...+++###   XXX+++++++++......+++   ###+++OOO++++++OOO...   ",
"   XXX+++...+++   ++++++++++++++++++OOO+++      XXX++++++OOOOOO......   XXX@@@OOOOOOOOO...+++   ",
"   XXX+++...+++   ++++++++++++++++++OOO+++      XXX++++++OOOOOO......   XXX@@@OOOOOOOOO...+++   ",
"   XXX+++...+++   ++++++++++++++++++OOO+++      XXX++++++OOOOOO......   XXX@@@OOOOOOOOO...+++   ",
"   ###++++++###      ......+++++++++            ###+++OOO+++OOOOOO...   XXX@@@+++++++++...@@@   ",
"   ###++++++###      ......+++++++++            ###+++OOO+++OOOOOO...   XXX@@@+++++++++...@@@   ",
"   ###++++++###      ......+++++++++            ###+++OOO+++OOOOOO...   XXX@@@+++++++++...@@@   ",
"   +++OOO+++++++++      +++         XXX...OOO   ++++++OOO++++++OOO...   ###......   ++++++XXX   ",
"   +++OOO+++++++++      +++         XXX...OOO   ++++++OOO++++++OOO...   ###......   ++++++XXX   ",
"   +++OOO+++++++++      +++         XXX...OOO   ++++++OOO++++++OOO...   ###......   ++++++XXX   ",
"   OOO+++++++++OOO...      ...###XXX###...OOO   ++++++OOO++++++OOO...   ###OOO      +++++++++   ",
"   OOO+++++++++OOO...      ...###XXX###...OOO   ++++++OOO++++++OOO...   ###OOO      +++++++++   ",
"   OOO+++++++++OOO...      ...###XXX###...OOO   ++++++OOO++++++OOO...   ###OOO      +++++++++   ",
"   +++...OOO+++OOOOOO+++   ...+++@@@++++++OOO   @@@+++OOO++++++OOO...   +++OOO   ++++++++++++   ",
"   +++...OOO+++OOOOOO+++   ...+++@@@++++++OOO   @@@+++OOO++++++OOO...   +++OOO   ++++++++++++   ",
"   +++...OOO+++OOOOOO+++   ...+++@@@++++++OOO   @@@+++OOO++++++OOO...   +++OOO   ++++++++++++   ",
"   ......++++++OOOOOO   +++......XXX@@@++++++   +++...++++++OOO+++...   +++++++++   .........   ",
"   ......++++++OOOOOO   +++......XXX@@@++++++   +++...++++++OOO+++...   +++++++++   .........   ",
"   ......++++++OOOOOO   +++......XXX@@@++++++   +++...++++++OOO+++...   +++++++++   .........   ",
"   ......++++++OOOOOO            @@@XXX+++OOO   +++...OOOOOO+++OOO+++   ###OOO+++      OOO...   ",
"   ......++++++OOOOOO            @@@XXX+++OOO   +++...OOOOOO+++OOO+++   ###OOO+++      OOO...   ",
"   ......++++++OOOOOO            @@@XXX+++OOO   +++...OOOOOO+++OOO+++   ###OOO+++      OOO...   ",
"   +++...###++++++++++++++++++   ...###++++++   ...OOOOOO+++++++++@@@   @@@OOO+++   ...+++OOO   ",
"   +++...###++++++++++++++++++   ...###++++++   ...OOOOOO+++++++++@@@   @@@OOO+++   ...+++OOO   ",
"   +++...###++++++++++++++++++   ...###++++++   ...OOOOOO+++++++++@@@   @@@OOO+++   ...+++OOO   ",
"   @@@...###+++OOO+++OOOOOO...         OOO+++   ...OOO+++XXX@@@+++XXX   XXX+++      +++......   ",
"   @@@...###+++OOO+++OOOOOO...         OOO+++   ...OOO+++XXX@@@+++XXX   XXX+++      +++......   ",
"   @@@...###+++OOO+++OOOOOO...         OOO+++   ...OOO+++XXX@@@+++XXX   XXX+++      +++......   ",
"   +++###+++...OOO+++++++++...         +++OOO   +++OOO+++@@@###+++XXX   XXX+++...............   ",
"   +++###+++...OOO+++++++++...         +++OOO   +++OOO+++@@@###+++XXX   XXX+++...............   ",
"   +++###+++...OOO+++++++++...         +++OOO   +++OOO+++@@@###+++XXX   XXX+++...............   ",
"   @@@+++......OOO+++OOO+++###   XXX@@@###OOO   ###OOO+++OOO+++OOO###   +++OOOOOOOOO@@@XXX###   ",
"   @@@+++......OOO+++OOO+++###   XXX@@@###OOO   ###OOO+++OOO+++OOO###   +++OOOOOOOOO@@@XXX###   ",
"   @@@+++......OOO+++OOO+++###   XXX@@@###OOO   ###OOO+++OOO+++OOO###   +++OOOOOOOOO@@@XXX###   ",
"                                                                                                ",
"                                                                                                ",
"                                                                                                "
};
