/* XPM */
static char *floor_4[] = {
/* columns rows colors chars-per-pixel */
"96 96 7 1 ",
"  c black",
". c #061B1A",
"X c #352005",
"o c #263030",
"O c #2E3737",
"+ c #462A08",
"@ c #623B0B",
/* pixels */
"                                                                                                ",
"                                                                                                ",
"                                                                                                ",
"   @@@OOO.........OOOOOOOOOOOOOOOOOOOOOOOOOOO   +++.........oooOOOOOOOOO@@@OOOOOO+++.........   ",
"   @@@OOO.........OOOOOOOOOOOOOOOOOOOOOOOOOOO   +++.........oooOOOOOOOOO@@@OOOOOO+++.........   ",
"   @@@OOO.........OOOOOOOOOOOOOOOOOOOOOOOOOOO   +++.........oooOOOOOOOOO@@@OOOOOO+++.........   ",
"   @@@OOO...OOOOOOOOOOOOOOOOOOOOO......OOOOOO   XXX...ooooooOOO+++XXXOOO+++OOOOOOOOOOOOooo...   ",
"   @@@OOO...OOOOOOOOOOOOOOOOOOOOO......OOOOOO   XXX...ooooooOOO+++XXXOOO+++OOOOOOOOOOOOooo...   ",
"   @@@OOO...OOOOOOOOOOOOOOOOOOOOO......OOOOOO   XXX...ooooooOOO+++XXXOOO+++OOOOOOOOOOOOooo...   ",
"   +++OOOXXXOOOOOOOOOOOO@@@@@@OOOoooooo...OOO   XXXoooooo...OOOOOO+++OOO+++OOOOOOOOOOOOOOOooo   ",
"   +++OOOXXXOOOOOOOOOOOO@@@@@@OOOoooooo...OOO   XXXoooooo...OOOOOO+++OOO+++OOOOOOOOOOOOOOOooo   ",
"   +++OOOXXXOOOOOOOOOOOO@@@@@@OOOoooooo...OOO   XXXoooooo...OOOOOO+++OOO+++OOOOOOOOOOOOOOOooo   ",
"   XXXOOO+++OOOOOOooo   @@@+++OOOOOOooo...@@@   @@@ooo@@@...OOOOOO@@@OOOXXXOOOOOOoooOOOOOOOOO   ",
"   XXXOOO+++OOOOOOooo   @@@+++OOOOOOooo...@@@   @@@ooo@@@...OOOOOO@@@OOOXXXOOOOOOoooOOOOOOOOO   ",
"   XXXOOO+++OOOOOOooo   @@@+++OOOOOOooo...@@@   @@@ooo@@@...OOOOOO@@@OOOXXXOOOOOOoooOOOOOOOOO   ",
"   OOOOOOOOOOOO...ooo      OOOOOOOOOOOOOOO+++   ooooooooo...OOO@@@OOOOOOXXXOOOOOO...ooooooOOO   ",
"   OOOOOOOOOOOO...ooo      OOOOOOOOOOOOOOO+++   ooooooooo...OOO@@@OOOOOOXXXOOOOOO...ooooooOOO   ",
"   OOOOOOOOOOOO...ooo      OOOOOOOOOOOOOOO+++   ooooooooo...OOO@@@OOOOOOXXXOOOOOO...ooooooOOO   ",
"   OOOOOOOOOOOOooooooOOO   OOO...OOO   OOOXXX   OOOoooooooooOOOOOOOOOOOOXXXOOOOOO......oooOOO   ",
"   OOOOOOOOOOOOooooooOOO   OOO...OOO   OOOXXX   OOOoooooooooOOOOOOOOOOOOXXXOOOOOO......oooOOO   ",
"   OOOOOOOOOOOOooooooOOO   OOO...OOO   OOOXXX   OOOoooooooooOOOOOOOOOOOOXXXOOOOOO......oooOOO   ",
"   OOOOOO   OOOXXXoooOOO            ooo   OOO   OOOOOOOOOOOOoooOOOOOOOOO@@@XXXOOOOOO...oooOOO   ",
"   OOOOOO   OOOXXXoooOOO            ooo   OOO   OOOOOOOOOOOOoooOOOOOOOOO@@@XXXOOOOOO...oooOOO   ",
"   OOOOOO   OOOXXXoooOOO            ooo   OOO   OOOOOOOOOOOOoooOOOOOOOOO@@@XXXOOOOOO...oooOOO   ",
"   OOOoooOOO   XXXoooOOO   ...OOOooooooOOOOOO   OOOOOOOOOOOOOOOoooOOOOOO++++++OOOOOO...OOOooo   ",
"   OOOoooOOO   XXXoooOOO   ...OOOooooooOOOOOO   OOOOOOOOOOOOOOOoooOOOOOO++++++OOOOOO...OOOooo   ",
"   OOOoooOOO   XXXoooOOO   ...OOOooooooOOOOOO   OOOOOOOOOOOOOOOoooOOOOOO++++++OOOOOO...OOOooo   ",
"   ...oooOOOOOO   ooo      ...OOOOOOOOOOOOOOO   OOOOOOOOOOOOOOOoooOOOOOO+++XXXOOOOOO...OOOOOO   ",
"   ...oooOOOOOO   ooo      ...OOOOOOOOOOOOOOO   OOOOOOOOOOOOOOOoooOOOOOO+++XXXOOOOOO...OOOOOO   ",
"   ...oooOOOOOO   ooo      ...OOOOOOOOOOOOOOO   OOOOOOOOOOOOOOOoooOOOOOO+++XXXOOOOOO...OOOOOO   ",
"   ...oooOOOOOOOOO            ...OOOOOOoooooo   ......ooooooOOO...OOOOOO@@@OOOoooOOOOOOOOOOOO   ",
"   ...oooOOOOOOOOO            ...OOOOOOoooooo   ......ooooooOOO...OOOOOO@@@OOOoooOOOOOOOOOOOO   ",
"   ...oooOOOOOOOOO            ...OOOOOOoooooo   ......ooooooOOO...OOOOOO@@@OOOoooOOOOOOOOOOOO   ",
"   OOOoooOOOOOOooo   OOO   OOO   OOOOOOooo...   OOOOOOOOOOOOOOO...OOOOOO@@@OOOoooooooooOOOOOO   ",
"   OOOoooOOOOOOooo   OOO   OOO   OOOOOOooo...   OOOOOOOOOOOOOOO...OOOOOO@@@OOOoooooooooOOOOOO   ",
"   OOOoooOOOOOOooo   OOO   OOO   OOOOOOooo...   OOOOOOOOOOOOOOO...OOOOOO@@@OOOoooooooooOOOOOO   ",
"   OOOOOOOOOOOO   ...OOO   OOO   OOOOOO......   OOOOOOOOOoooOOO...OOOOOO@@@OOOooooooOOOOOOOOO   ",
"   OOOOOOOOOOOO   ...OOO   OOO   OOOOOO......   OOOOOOOOOoooOOO...OOOOOO@@@OOOooooooOOOOOOOOO   ",
"   OOOOOOOOOOOO   ...OOO   OOO   OOOOOO......   OOOOOOOOOoooOOO...OOOOOO@@@OOOooooooOOOOOOOOO   ",
"   OOOOOOoooOOO   ...OOOOOOoooOOO   OOOXXXXXX   OOO...OOOOOO......oooOOO@@@oooOOO...oooOOOOOO   ",
"   OOOOOOoooOOO   ...OOOOOOoooOOO   OOOXXXXXX   OOO...OOOOOO......oooOOO@@@oooOOO...oooOOOOOO   ",
"   OOOOOOoooOOO   ...OOOOOOoooOOO   OOOXXXXXX   OOO...OOOOOO......oooOOO@@@oooOOO...oooOOOOOO   ",
"   ...oooOOOOOOOOOOOOOOO   ooo......   @@@+++   ......OOO@@@OOOOOOOOOOOO@@@oooOOO......OOO@@@   ",
"   ...oooOOOOOOOOOOOOOOO   ooo......   @@@+++   ......OOO@@@OOOOOOOOOOOO@@@oooOOO......OOO@@@   ",
"   ...oooOOOOOOOOOOOOOOO   ooo......   @@@+++   ......OOO@@@OOOOOOOOOOOO@@@oooOOO......OOO@@@   ",
"   ...OOOOOO+++++++++OOO   .........OOO+++@@@   ...@@@...@@@@@@+++OOOOOO+++OOO.........OOO+++   ",
"   ...OOOOOO+++++++++OOO   .........OOO+++@@@   ...@@@...@@@@@@+++OOOOOO+++OOO.........OOO+++   ",
"   ...OOOOOO+++++++++OOO   .........OOO+++@@@   ...@@@...@@@@@@+++OOOOOO+++OOO.........OOO+++   ",
"   ......@@@@@@XXXXXX+++OOO......oooOOOOOO+++   @@@++++++XXXXXXXXX+++OOOXXXXXXOOOOOOooo......   ",
"   ......@@@@@@XXXXXX+++OOO......oooOOOOOO+++   @@@++++++XXXXXXXXX+++OOOXXXXXXOOOOOOooo......   ",
"   ......@@@@@@XXXXXX+++OOO......oooOOOOOO+++   @@@++++++XXXXXXXXX+++OOOXXXXXXOOOOOOooo......   ",
"                                                                                                ",
"                                                                                                ",
"                                                                                                ",
"   @@@XXXOOOOOO...OOOOOO...............@@@+++      @@@   OOO@@@XXXXXXOOOooooooOOOOOO   OOO      ",
"   @@@XXXOOOOOO...OOOOOO...............@@@+++      @@@   OOO@@@XXXXXXOOOooooooOOOOOO   OOO      ",
"   @@@XXXOOOOOO...OOOOOO...............@@@+++      @@@   OOO@@@XXXXXXOOOooooooOOOOOO   OOO      ",
"   +++......OOOoooOOOOOOoooooooooOOO...OOO@@@   XXXOOO   OOO......OOOOOO@@@OOOooo   OOOooo...   ",
"   +++......OOOoooOOOOOOoooooooooOOO...OOO@@@   XXXOOO   OOO......OOOOOO@@@OOOooo   OOOooo...   ",
"   +++......OOOoooOOOOOOoooooooooOOO...OOO@@@   XXXOOO   OOO......OOOOOO@@@OOOooo   OOOooo...   ",
"   XXXOOO...OOOOOOOOOOOOOOOOOOOOOOOOoooOOOOOO   XXXOOOOOO   ooo......OOOXXX+++ooo   ooo...OOO   ",
"   XXXOOO...OOOOOOOOOOOOOOOOOOOOOOOOoooOOOOOO   XXXOOOOOO   ooo......OOOXXX+++ooo   ooo...OOO   ",
"   XXXOOO...OOOOOOOOOOOOOOOOOOOOOOOOoooOOOOOO   XXXOOOOOO   ooo......OOOXXX+++ooo   ooo...OOO   ",
"   @@@OOOOOO@@@OOOOOO......OOOOOOOOOOOO...OOO   @@@OOOoooOOO   OOO               OOOOOO...+++   ",
"   @@@OOOOOO@@@OOOOOO......OOOOOOOOOOOO...OOO   @@@OOOoooOOO   OOO               OOOOOO...+++   ",
"   @@@OOOOOO@@@OOOOOO......OOOOOOOOOOOO...OOO   @@@OOOoooOOO   OOO               OOOOOO...+++   ",
"   OOOoooOOOOOOOOOOOOOOOOOOoooooooooXXX...ooo   OOOOOOoooOOOOOO   ...OOO@@@......@@@OOOOOOXXX   ",
"   OOOoooOOOOOOOOOOOOOOOOOOoooooooooXXX...ooo   OOOOOOoooOOOOOO   ...OOO@@@......@@@OOOOOOXXX   ",
"   OOOoooOOOOOOOOOOOOOOOOOOoooooooooXXX...ooo   OOOOOOoooOOOOOO   ...OOO@@@......@@@OOOOOOXXX   ",
"         OOOOOOooo...OOO+++...@@@XXX@@@...ooo   OOOOOOoooOOOOOO   ...OOO@@@ooooooOOOOOOOOOOOO   ",
"         OOOOOOooo...OOO+++...@@@XXX@@@...ooo   OOOOOOoooOOOOOO   ...OOO@@@ooooooOOOOOOOOOOOO   ",
"         OOOOOOooo...OOO+++...@@@XXX@@@...ooo   OOOOOOoooOOOOOO   ...OOO@@@ooooooOOOOOOOOOOOO   ",
"   OOO      OOOooooooOOO+++...OOO+++OOOOOOooo   +++OOOoooOOOOOOooo   OOOOOOoooOOOOOOOOOOOOOOO   ",
"   OOO      OOOooooooOOO+++...OOO+++OOOOOOooo   +++OOOoooOOOOOOooo   OOOOOOoooOOOOOOOOOOOOOOO   ",
"   OOO      OOOooooooOOO+++...OOO+++OOOOOOooo   +++OOOoooOOOOOOooo   OOOOOOoooOOOOOOOOOOOOOOO   ",
"   ......   OOOooooooOOOOOO......XXX+++OOOOOO   OOO...OOOOOOoooOOO   OOOOOOOOOOOOooo.........   ",
"   ......   OOOooooooOOOOOO......XXX+++OOOOOO   OOO...OOOOOOoooOOO   OOOOOOOOOOOOooo.........   ",
"   ......   OOOooooooOOOOOO......XXX+++OOOOOO   OOO...OOOOOOoooOOO   OOOOOOOOOOOOooo.........   ",
"   ......   OOOooooooOOOOOOOOOOOO+++XXXOOOooo   OOO...ooooooOOOooo   OOO@@@oooOOO+++oooooo...   ",
"   ......   OOOooooooOOOOOOOOOOOO+++XXXOOOooo   OOO...ooooooOOOooo   OOO@@@oooOOO+++oooooo...   ",
"   ......   OOOooooooOOOOOOOOOOOO+++XXXOOOooo   OOO...ooooooOOOooo   OOO@@@oooOOO+++oooooo...   ",
"   OOO...   OOOOOOOOOOOOOOOOOOOOO...@@@OOOOOO   ...ooooooOOO      OOO         OOOXXX...OOOooo   ",
"   OOO...   OOOOOOOOOOOOOOOOOOOOO...@@@OOOOOO   ...ooooooOOO      OOO         OOOXXX...OOOooo   ",
"   OOO...   OOOOOOOOOOOOOOOOOOOOO...@@@OOOOOO   ...ooooooOOO      OOO         OOOXXX...OOOooo   ",
"   +++...   OOOoooOOOoooooo...OOOOOOOOOoooOOO   ...ooo      +++OOOXXXOOOXXX   @@@XXXOOO......   ",
"   +++...   OOOoooOOOoooooo...OOOOOOOOOoooOOO   ...ooo      +++OOOXXXOOOXXX   @@@XXXOOO......   ",
"   +++...   OOOoooOOOoooooo...OOOOOOOOOoooOOO   ...ooo      +++OOOXXXOOOXXX   @@@XXXOOO......   ",
"   OOO@@@OOO         OOOOOO...OOOOOOOOOOOOooo   OOOoooOOO   @@@OOOXXXOOOXXXOOO   ............   ",
"   OOO@@@OOO         OOOOOO...OOOOOOOOOOOOooo   OOOoooOOO   @@@OOOXXXOOOXXXOOO   ............   ",
"   OOO@@@OOO         OOOOOO...OOOOOOOOOOOOooo   OOOoooOOO   @@@OOOXXXOOOXXXOOO   ............   ",
"   +++OOO......oooOOO      @@@OOOXXX+++@@@ooo   @@@oooOOO   OOOooo@@@OOOOOOooo      +++XXX@@@   ",
"   +++OOO......oooOOO      @@@OOOXXX+++@@@ooo   @@@oooOOO   OOOooo@@@OOOOOOooo      +++XXX@@@   ",
"   +++OOO......oooOOO      @@@OOOXXX+++@@@ooo   @@@oooOOO   OOOooo@@@OOOOOOooo      +++XXX@@@   ",
"                                                                                                ",
"                                                                                                ",
"                                                                                                "
};
