/* XPM */
static char *floor_2_lume_[] = {
/* columns rows colors chars-per-pixel */
"32 32 73 1 ",
"  c #060706",
". c #000101",
"X c #273030",
"o c #303530",
"O c #2A3333",
"+ c #0B0B0A",
"@ c #242B29",
"# c #0A0601",
"$ c #2D3636",
"% c #1D0C09",
"& c #122220",
"* c #2A2E2A",
"= c #242E2E",
"- c #303837",
"; c #343B3A",
": c #462F10",
"> c #120B08",
", c #0A1A18",
"< c #030404",
"1 c #1F2928",
"2 c #2F312D",
"3 c #0D1E1D",
"4 c #1B2523",
"5 c #393735",
"6 c #3F2A15",
"7 c #310D03",
"8 c #26221B",
"9 c #863932",
"0 c #362922",
"q c #513816",
"w c #A94537",
"e c #39260E",
"r c #943A31",
"t c #A04133",
"y c #0F0F0D",
"u c #9D3F36",
"i c #B1483B",
"p c #290F0B",
"a c #322410",
"s c #8D3C31",
"d c #413D3B",
"f c #472D26",
"g c #BD2907",
"h c #6F3D39",
"j c #E84615",
"k c #7B332D",
"l c #672E29",
"z c #923F34",
"x c #051413",
"c c #2E210D",
"v c #373230",
"b c #5F3735",
"n c #6F3420",
"m c #C14734",
"M c #AA3C2F",
"N c #C13E12",
"B c #3F3938",
"V c #6B3734",
"C c #C1300B",
"Z c #CE3D11",
"A c #523E38",
"S c #4F332F",
"D c #AE280C",
"F c #B74633",
"G c #E73612",
"H c #542A13",
"J c #1D1C18",
"K c #D1320E",
"L c #AD3711",
"P c #2C1D07",
"I c #7F280E",
"U c #84301E",
"Y c #9C2A0D",
/* pixels */
".# <<<   ..    .#<<<    #  #<<<.",
"#:*,,3=X@ +1=X@+P,,31**2:2*a,,x<",
"#qo&X$$-2+1&&OX+P&1=o6eo:o-oO=3<",
"#e2ao$$o:>XX1&*+c**&Oo:o6o$$$$1 ",
"<c26oOOX>+O$=4:>:2:&O5qoeo$X$$X ",
" *-oO4=X+@O$$2e+@X*&oq5oaoO&@OX ",
" X--o*X@y=4$-oc+XOXX$--oe2O&3=X ",
" @$-qe@y:4$;$;2+$;;;-;;;q6oO3=X ",
".+1-56*yv4BB5d5y25555v55:62=3=@ ",
"<x+X;5*>f4bhhhb+ +>%%+%%%>++ +4 ",
"<, +O*+#>8fzu9l>J8lkk8krLSOO=++.",
" =@+y >lpk9rrk8>9twwu0uFjh;-$O@ ",
" O;5S88sr7ppp>,>uwitz0tmj9B$--X ",
" X;Bh9ftissssp<>9fwwf0zmjsb4X-2 ",
"<3OdhMMii900wN7<86tjFwimjrb&&o:#",
"<,$ALGGmw040wjZ%6NnjjGmmGM0&&Xe#",
"<x&nCDgKr88nuMC7LKCgggKMgDlv13x<",
".  %p%p%>  >%77#77pp777%pp%%>+<.",
"#:avS0k>J8888NC7gNSzNDYpkkVn::,<",
"#e&4b9rpkszzfFZ7gmwwf6U7ZMVA5*3<",
"#aO1hurpsiiizwt7gFitl>>pgGV5O&@ ",
"#:;dtur%6wiitf97ZFtup>8rKCbd-&a#",
" 2-dAhVp9suMD0npuwzrpl0tZ61q;Oc#",
" @$;d54%DHNCZflpru99pl0sNB$;;-* ",
" 1&O;-2%I8VY9bS%UVbb%f4AA;;-$O= ",
"<,3O-$Xyv44HHd5yv1Bv+*1dd;-X&3,<",
"<,3o-O=+O-o66-X+@31y y=oqoo6@@3<",
" 1&q-$X+X$$4q-X   y@2@yye@*c&X1 ",
"#a8qoOX+1&O$oOX ,1*e:2c@>+  1&,<",
" *q2&=X+=4Oooo@+*Oo:qoe2a@,  xx<",
"#a*3,1@+@:*ce:4+6@X@**:2*@1&<.<.",
".# <<  . # <## .#     #     ...."
};
