/* XPM */
static char *lume[] = {
/* columns rows colors chars-per-pixel */
"96 96 8 1 ",
"  c black",
". c #161514",
"X c #262524",
"o c #322F2E",
"O c #914107",
"+ c #A84B09",
"@ c #C0590E",
"# c #E26912",
/* pixels */
"                                                                                                ",
"                                                                                                ",
"                                                                                                ",
"                                                                                                ",
"                                                                                                ",
"                                                                                                ",
"                                                                                                ",
"                                                                                                ",
"                                                                                                ",
"                                                                                                ",
"                                                                                                ",
"                                                                                                ",
"                                                                                                ",
"                                                                                                ",
"                                                                                                ",
"            .....................................................................               ",
"            .....................................................................               ",
"            .....................................................................               ",
"         ...........................................................................            ",
"         ...........................................................................            ",
"         ...........................................................................            ",
"      .........XXXXXXXXXXXXXXXXXXXXXXXXXXXXXXXXXXXXXXXXXXXXXXXXXXXXXXXXXXXXXXX.........         ",
"      .........XXXXXXXXXXXXXXXXXXXXXXXXXXXXXXXXXXXXXXXXXXXXXXXXXXXXXXXXXXXXXXX.........         ",
"      .........XXXXXXXXXXXXXXXXXXXXXXXXXXXXXXXXXXXXXXXXXXXXXXXXXXXXXXXXXXXXXXX.........         ",
"   .........XXXXXXoooooooooooooooooooooooooooooooooooooooooooooooooooooooooXXXXXX.........      ",
"   .........XXXXXXoooooooooooooooooooooooooooooooooooooooooooooooooooooooooXXXXXX.........      ",
"   .........XXXXXXoooooooooooooooooooooooooooooooooooooooooooooooooooooooooXXXXXX.........      ",
"   ......XXXXXXooooooOOOOOOOOOOOOOOOOOOOOOOOOOOOOOOOOOOOOOOOOOOOOOOOOOOOooooooXXXXXX......      ",
"   ......XXXXXXooooooOOOOOOOOOOOOOOOOOOOOOOOOOOOOOOOOOOOOOOOOOOOOOOOOOOOooooooXXXXXX......      ",
"   ......XXXXXXooooooOOOOOOOOOOOOOOOOOOOOOOOOOOOOOOOOOOOOOOOOOOOOOOOOOOOooooooXXXXXX......      ",
"   ...XXXXXXooooooOOO+++++++++++++++++++++++++++++++++++++++++++++++++++OOOooooooXXXXXX...      ",
"   ...XXXXXXooooooOOO+++++++++++++++++++++++++++++++++++++++++++++++++++OOOooooooXXXXXX...      ",
"   ...XXXXXXooooooOOO+++++++++++++++++++++++++++++++++++++++++++++++++++OOOooooooXXXXXX...      ",
"   ...XXXooooooOOO+++@@@@@@@@@@@@@@@@@@@@@@@@@@@@@@@@@@@@@@@@@@@@@@@@@@@+++OOOooooooXXX...      ",
"   ...XXXooooooOOO+++@@@@@@@@@@@@@@@@@@@@@@@@@@@@@@@@@@@@@@@@@@@@@@@@@@@+++OOOooooooXXX...      ",
"   ...XXXooooooOOO+++@@@@@@@@@@@@@@@@@@@@@@@@@@@@@@@@@@@@@@@@@@@@@@@@@@@+++OOOooooooXXX...      ",
"   ...XXXoooOOO+++@@@###################################################+++OOOooooooXXX...      ",
"   ...XXXoooOOO+++@@@###################################################+++OOOooooooXXX...      ",
"   ...XXXoooOOO+++@@@###################################################+++OOOooooooXXX...      ",
"   ...XXXoooOOO+++@@@###################################################@@@+++OOOoooXXX...      ",
"   ...XXXoooOOO+++@@@###################################################@@@+++OOOoooXXX...      ",
"   ...XXXoooOOO+++@@@###################################################@@@+++OOOoooXXX...      ",
"   ...XXXoooOOO+++@@@###################################################@@@+++OOOoooXXX...      ",
"   ...XXXoooOOO+++@@@###################################################@@@+++OOOoooXXX...      ",
"   ...XXXoooOOO+++@@@###################################################@@@+++OOOoooXXX...      ",
"   ...XXXoooOOO+++@@@###################################################@@@+++OOOoooXXX...      ",
"   ...XXXoooOOO+++@@@###################################################@@@+++OOOoooXXX...      ",
"   ...XXXoooOOO+++@@@###################################################@@@+++OOOoooXXX...      ",
"   ...XXXoooOOO+++@@@###################################################@@@+++OOOoooXXX...      ",
"   ...XXXoooOOO+++@@@###################################################@@@+++OOOoooXXX...      ",
"   ...XXXoooOOO+++@@@###################################################@@@+++OOOoooXXX...      ",
"   ...XXXoooOOO+++@@@###################################################@@@+++OOOoooXXX...      ",
"   ...XXXoooOOO+++@@@###################################################@@@+++OOOoooXXX...      ",
"   ...XXXoooOOO+++@@@###################################################@@@+++OOOoooXXX...      ",
"   ...XXXoooOOO+++@@@###################################################@@@+++OOOoooXXX...      ",
"   ...XXXoooOOO+++@@@###################################################@@@+++OOOoooXXX...      ",
"   ...XXXoooOOO+++@@@###################################################@@@+++OOOoooXXX...      ",
"   ...XXXoooOOO+++@@@###################################################@@@+++OOOoooXXX...      ",
"   ...XXXoooOOO+++@@@###################################################@@@+++OOOoooXXX...      ",
"   ...XXXoooOOO+++@@@###################################################@@@+++OOOoooXXX...      ",
"   ...XXXoooOOO+++@@@###################################################@@@+++OOOoooXXX...      ",
"   ...XXXoooOOO+++@@@###################################################@@@+++OOOoooXXX...      ",
"   ...XXXoooOOO+++@@@###################################################@@@+++OOOoooXXX...      ",
"   ...XXXoooOOO+++@@@###################################################@@@+++OOOoooXXX...      ",
"   ...XXXoooOOO+++@@@###################################################@@@+++OOOoooXXX...      ",
"   ...XXXoooOOO+++@@@###################################################@@@+++OOOoooXXX...      ",
"   ...XXXooooooOOO+++@@@@@@@@@@@@@@@@@@@@@@@@@@@@@@@@@@@@@@@@@@@@@@@@@@@+++OOOooooooXXX...      ",
"   ...XXXooooooOOO+++@@@@@@@@@@@@@@@@@@@@@@@@@@@@@@@@@@@@@@@@@@@@@@@@@@@+++OOOooooooXXX...      ",
"   ...XXXooooooOOO+++@@@@@@@@@@@@@@@@@@@@@@@@@@@@@@@@@@@@@@@@@@@@@@@@@@@+++OOOooooooXXX...      ",
"   ...XXXXXXooooooOOO+++++++++++++++++++++++++++++++++++++++++++++++++++OOOooooooXXXXXX...      ",
"   ...XXXXXXooooooOOO+++++++++++++++++++++++++++++++++++++++++++++++++++OOOooooooXXXXXX...      ",
"   ...XXXXXXooooooOOO+++++++++++++++++++++++++++++++++++++++++++++++++++OOOooooooXXXXXX...      ",
"   ......XXXXXXooooooOOOOOOOOOOOOOOOOOOOOOOOOOOOOOOOOOOOOOOOOOOOOOOOOOOOooooooXXXXXX......      ",
"   ......XXXXXXooooooOOOOOOOOOOOOOOOOOOOOOOOOOOOOOOOOOOOOOOOOOOOOOOOOOOOooooooXXXXXX......      ",
"   ......XXXXXXooooooOOOOOOOOOOOOOOOOOOOOOOOOOOOOOOOOOOOOOOOOOOOOOOOOOOOooooooXXXXXX......      ",
"      ......XXXXXXoooooooooooooooooooooooooooooooooooooooooooooooooooooooooXXXXXX......         ",
"      ......XXXXXXoooooooooooooooooooooooooooooooooooooooooooooooooooooooooXXXXXX......         ",
"      ......XXXXXXoooooooooooooooooooooooooooooooooooooooooooooooooooooooooXXXXXX......         ",
"         ......XXXXXXXXXXXXXXXXXXXXXXXXXXXXXXXXXXXXXXXXXXXXXXXXXXXXXXXXXXXXXXX......            ",
"         ......XXXXXXXXXXXXXXXXXXXXXXXXXXXXXXXXXXXXXXXXXXXXXXXXXXXXXXXXXXXXXXX......            ",
"         ......XXXXXXXXXXXXXXXXXXXXXXXXXXXXXXXXXXXXXXXXXXXXXXXXXXXXXXXXXXXXXXX......            ",
"            .....................................................................               ",
"            .....................................................................               ",
"            .....................................................................               ",
"                           .......................................                              ",
"                           .......................................                              ",
"                           .......................................                              ",
"                                                                                                ",
"                                                                                                ",
"                                                                                                ",
"                                                                                                ",
"                                                                                                ",
"                                                                                                ",
"                                                                                                ",
"                                                                                                ",
"                                                                                                "
};
