/* XPM */
static char *ceiling_norugg[] = {
/* columns rows colors chars-per-pixel */
"32 32 21 1 ",
"  c #131D2C",
". c #1A2537",
"X c #1B283B",
"o c #1C2B3F",
"O c #1E2C3F",
"+ c #1F2E42",
"@ c #1F2F44",
"# c #1F3044",
"$ c #202E42",
"% c #202F44",
"& c #223043",
"* c #203045",
"= c #243347",
"- c #253446",
"; c #233348",
": c #233449",
"> c #25364B",
", c #27374C",
"< c #27384C",
"1 c #28384D",
"2 c #293D5B",
/* pixels */
"                                ",
" ><,= 2><>>>>>>>>>>1O-<>>2 =>>, ",
" >$$O 2$$$$$$$$++$$$$$$$$2 $$$< ",
" >$*+ 2*+***+***@******+*2 **$> ",
" >$** 22@***+**++***++*%22 **$> ",
" >$*** 222+**+++**+++**22 >**$> ",
" >$*@*o 22*:*;:;:;;;*222 >***$> ",
" >$@o*oo                >**+*$> ",
" >$***@o -**=*=  ==**> &;**%*$> ",
" <$**;+o -*****  ***** &*+;**$< ",
"      %o >*          * $:+      ",
" *$==2 o *o >==-2222 * &* $>*$2 ",
" >$*+22     :++*+*22 > & $;@*$2 ",
" >$**22 +@+ :***+*22 * $ >++*$2 ",
" >$++22 $$o ;%2+*o*2   = -***$2 ",
" >$@*+2 *:* ;**22o** >:: >***2< ",
" >$#++2     ;+*2o*+*     >*++22 ",
" >$*++2 **+ :*2**2+* === >***$2 ",
" >$**22 o*+ ***+**** >*% **++$> ",
" 1$*;22 @*+ -**-**** -** o***$< ",
" O$o22 **+*          >*** .oX$O ",
"      **++*:;;:  ;;;*+**%*      ",
" <$**@****+**%*  **********oooo ",
" >$****@*++++++  oooo++***+oooo ",
" >$o+***                **+oo+> ",
" >$oo** 22222222222222o2 **+o+> ",
" >oo** &;***++**%*+*%+**o ***o> ",
" >oo* $;**+*++*@*+++++**;o **+> ",
" >$o+ :@%*********%*++**+; +*+o ",
" >$$$ $$$$$$$$$$$$$$$$$$$+ O$$> ",
" >>>* >>>>>>>>>>>>>>>>>>>, >>>> ",
"                                "
};
