/* XPM */
static char *floor_3_lume__1_[] = {
/* columns rows colors chars-per-pixel */
"32 32 77 1 ",
"  c #050606",
". c #010202",
"X c #262F2E",
"o c #303430",
"O c #283130",
"+ c #2A3433",
"@ c #0E1D1B",
"# c #2E3737",
"$ c #080401",
"% c #0B0803",
"& c #080B0B",
"* c #100B08",
"= c #091917",
"- c #202827",
"; c #222B2C",
": c #12211F",
"> c #250E0A",
", c #9D3F35",
"< c #2D3635",
"1 c #2D302B",
"2 c #1C0A05",
"3 c #310D04",
"4 c #292D29",
"5 c #23221B",
"6 c #323A3A",
"7 c #32230F",
"8 c #492E0E",
"9 c #353732",
"0 c #3B3838",
"q c #3A270D",
"w c #4C3210",
"e c #A74538",
"r c #BC2907",
"t c #0C1111",
"y c #2E1F0A",
"u c #7F3730",
"i c #422A23",
"p c #933E34",
"a c #473D3A",
"s c #8A3A32",
"d c #4C322B",
"f c #402D12",
"g c #6F3C39",
"h c #231D18",
"j c #B3483B",
"k c #BF320C",
"l c #162521",
"z c #40290E",
"x c #643836",
"c c #AA4239",
"v c #6D352E",
"b c #89372E",
"n c #C33D10",
"m c #4E3717",
"M c #3B3230",
"N c #170F0C",
"B c #682D29",
"V c #AD3C2E",
"C c #332621",
"Z c #A92408",
"A c #57302D",
"S c #342B24",
"D c #973827",
"F c #D43F11",
"G c #B94732",
"H c #EE4712",
"J c #583834",
"K c #6E3312",
"L c #AC3811",
"P c #42140C",
"I c #DF330C",
"U c #783129",
"Y c #E73A11",
"T c #583512",
"R c #3A3E3E",
"E c #8B280F",
"W c #9B3012",
/* pixels */
".% ... .       .$...    %  $....",
"%84==@-&;OO;;O;%y==@-441w117@==.",
"%wo:O<O&19+::+O  @;;ofqof9#<+;@.",
"$qo7o#O*wT9X;:4  -X:+of1fo###<; ",
"$7ofo+;*w89<Xl8% 4w:+9wNyo<XOOX ",
" 4#<+l-*zo+#<oq$ ;X:om1*yo+@&t; ",
" O##94;*wol<#<7$ ;OO<9#1qo+=&-X ",
" O#9mq4N8l+6<6o  X66#669Tz1&=XX ",
" ;O#1744N@000a0% *Maa00h881&=+; ",
".@X+&**&.@JgggxNi%*AgJxAK8o&@+O ",
".@OOtSdh hip,sB*5h*>uiuPLJ+&X#O ",
" XXtMdvB>b,ccu5*b,b>UCpDFgo&X#O ",
" O+tdCCU>,jjeih2,e,>*NUPFsM&+6O ",
" XXNxuis>seejkZ>ude,C5*2Fsdt;#1 ",
".=tMgVc,>vSSeHI25i,HG,>3FbN=:ow%",
".t&dLIYVN5lScHY>znKHHYVDYV5::Oq$",
".t%KkZrr2@5v,Vk3LIkrrrrPZZAo;@=.",
"...%22>3   *N33$33>3333$2>NN*% .",
".$...hspC5557nk3rndpnZZ>UuvK88=.",
"$y@=NBcjpsppdGn3rGeedib3nVxa9X@.",
"$7o-A>beejjjus>2rGj,uS52rIv0+:- ",
"%w6aD>*5ip,s32%2FG,e,u52rkx0#l7$",
" 1#Rad%*B>3PE7B>,cpccs52ki@t+oy$",
" ;<6R0:**hkrniB>D,s,,uh2LM&&+#4 ",
" ;l+6#9iN:vWuxA2EgxggJ@&aot-++X ",
".=@+6<Ot-@:8Ta9*M-0a00:&96Xt=:=.",
".=@o#+X&&&%qz9O&XlO#6#1*w9O &-@.",
" -:m9<<OO- =89O&@;Oo<9q*q1; =X- ",
"$75moO<+X@..*XO&@Xoqfoy%y1&&-:=.",
" Sm1:X#<+@.$*1;&4Oofmo7%yO@=@@=.",
"$74@=-X;1z%>78-*f4X414z*-;--7yz%",
".$ ..    %.$$% .%     %.    $$%."
};
