/* XPM */
static char *floor_4_lume_[] = {
/* columns rows colors chars-per-pixel */
"32 32 88 1 ",
"  c #050606",
". c #010202",
"X c #273030",
"o c #2E3737",
"O c #090501",
"+ c #2A3434",
"@ c #232C2C",
"# c #132321",
"$ c #091A19",
"% c #323A3A",
"& c #0E0B07",
"* c #313632",
"= c #9D4037",
"- c #8C3A33",
"; c #2E3430",
": c #293231",
"> c #272E2B",
", c #202929",
"< c #070909",
"1 c #1C2523",
"2 c #6B3C3A",
"3 c #A84439",
"4 c #332510",
"5 c #2D2F29",
"6 c #402B10",
"7 c #443D3C",
"8 c #272B27",
"9 c #32332C",
"0 c #180D0B",
"q c #0C0D0C",
"w c #101110",
"e c #270D08",
"r c #5B3433",
"t c #332923",
"y c #0F201E",
"u c #0E1C1A",
"i c #310D04",
"p c #0A1615",
"a c #923E34",
"s c #823931",
"d c #482E26",
"f c #A03F2F",
"g c #472E0F",
"h c #393634",
"j c #B0473A",
"k c #27201B",
"l c #92372C",
"z c #3A270D",
"x c #4A3212",
"c c #373A37",
"v c #2F220F",
"b c #1E0903",
"n c #3B1813",
"m c #2D1D08",
"M c #383230",
"N c #3D2921",
"B c #703023",
"V c #21221B",
"C c #3D3939",
"Z c #553C37",
"A c #C04735",
"S c #583813",
"D c #3B3E3D",
"F c #733933",
"G c #5F2E25",
"H c #E84814",
"J c #E34213",
"K c #B74633",
"L c #BE4014",
"P c #C8310F",
"I c #A9280B",
"U c #AF3D2C",
"Y c #BD2A07",
"T c #4D3718",
"R c #863120",
"E c #A1392D",
"W c #CC3D13",
"Q c #6F3525",
"! c #B62609",
"~ c #EC3B14",
"^ c #25110F",
"/ c #C12E0D",
"( c #443835",
") c #A33310",
"_ c #B8370C",
"` c #DF340A",
"' c #502714",
"] c #2B2827",
/* pixels */
".O ...         .O...    O  O....",
"Og>$$u>XXXX@@X@&m$$u,>>5x554u$p.",
"Ox;#X+oo**+##::&my@@;6z9g*o*+@u.",
"Oz94;oo9SS*X@#>&v>>#+9696*oooo, ",
"Ov96*+@wgg*oX#g0g9xy+hT94;oX+oX ",
" >o*+#,<&5+o:;z&8X>#;Th;4;+#@:X ",
" Xo:+>X@q,y,p8v&X+XXo*o*z9+yyXX ",
" ::p84;+<<<w1p8q+%%%o%%cS6*XyXX ",
" @:@wm*9<uMMhChqC7777C77Sg*+y:@ ",
".uX%:w]&.ur222r0r2222r22Bgco#+X ",
".uX%DMqO.0ka=-B0kNs--N-=LZ%%ooX ",
" >oD7d0BeB^=3Fk0-=33=N=KJ2coooX ",
" :%7Z0k-n-n-3dk0=3j=at=AJs(o%oX ",
" X%Cr^t=a=snl/Iesd3jdtaAH-Z1Xo5 ",
".u+7Flf=nQtunJ`bVNfHK3jAHEr##*xO",
".$+Z)`~U^V1tf~Je6LBHH~AA~Et##:zO",
".pyQ_!!PRVVQ=U/i_`PYYYPU!IGM,up.",
".<<0ebei0<<&0iiObibeiiieee0q <..",
"O64Mrt--tVVVvLPbe)elLI!ElRrtw1<.",
"Oz#12s3ja-aadKWiIUnsdNfAJUrw>@$.",
"O4;,F=333jjja3fiYKanGttlY/Gw@#, ",
"Oxc7f==dd3jjfd-iWK=-nB0eib0Mo#4O",
" 8:DZ2saf-fEINBef3a3-^kl_k#Sc;vO",
".<q:Dht-P'W/WNGel=-=-0k-L(oc%o> ",
" 1<qooh2RkQ)s2r0RFr22d0rZc%%++> ",
".$p<:oo7(11'G7hqM,C7ChqhD%%X#y$.",
".$$<:++%%o*66cXq>#:o+,w5T5*68@u.",
" ,$<:ooooo+1T*:<u@@@ww,w&q54#X1 ",
"O4uq@@X:X#++*+X<u,q&4548m064@y$.",
" 5T8q<w@>#+***@q>:@&x9z948qpyuu.",
"Ov5up11<&65vzx1&6>,q88g5>,  mmzO",
".O ..  ..O OOO .O  .  O   ..OOO."
};
